<?xml version="1.0" encoding="UTF-8" standalone="no"?>
<?xml-stylesheet href="static/css/cargoflow_styles.css" type="text/css"?>
<!DOCTYPE svg PUBLIC "-//W3C//DTD SVG 1.1//EN"
 "http://www.w3.org/Graphics/SVG/1.1/DTD/svg11.dtd">
<!-- Generated by graphviz version 2.40.1 (20161225.0304)
 -->
<!-- Title: arctic_basic Pages: 1 -->
<svg width="1586pt" height="697pt"
 viewBox="0.00 0.00 1586.15 697.00" xmlns="http://www.w3.org/2000/svg" xmlns:xlink="http://www.w3.org/1999/xlink">
<g id="graph0" class="graph" transform="scale(1 1) rotate(0) translate(4 693)">
<title>arctic_basic</title>
<g id="a_graph0"><a xlink:title="Arctic Basic">
<polygon fill="#ffffff" stroke="transparent" points="-4,4 -4,-693 1582.1497,-693 1582.1497,4 -4,4"/>
</a>
</g>
<!-- C_alcohol -->
<g id="alcohol" class="node">
<title>C_alcohol</title>
<g id="a_alcohol"><a xlink:href="cargos.html#alcohol" xlink:title="Alcohol" target="_top">
<ellipse fill="none" stroke="#000000" cx="1242.0513" cy="-212" rx="39.2233" ry="18"/>
<text text-anchor="middle" x="1242.0513" y="-207.8" font-family="sans-serif" font-size="14.00" fill="#000000">Alcohol</text>
</a>
</g>
</g>
<!-- I_general_store -->
<g id="general_store" class="node">
<title>I_general_store</title>
<g id="a_general_store"><a xlink:href="industries.html#general_store" xlink:title="General Store" target="_top">
<polygon fill="none" stroke="#000000" points="1478.7393,-237 1367.7393,-237 1367.7393,-201 1478.7393,-201 1478.7393,-237"/>
<text text-anchor="start" x="1380.1602" y="-214.8" font-family="sans-serif" font-size="14.00" fill="#000000">General Store</text>
</a>
</g>
</g>
<!-- C_alcohol&#45;&gt;I_general_store -->
<g id="edge1" class="edge">
<title>C_alcohol&#45;&gt;I_general_store</title>
<g id="a_edge1"><a xlink:title="Alcohol &#45;&gt; General Store">
<path fill="none" stroke="#000000" d="M1281.3664,-213.5189C1303.6021,-214.3779 1331.9831,-215.4744 1357.5094,-216.4606"/>
<polygon fill="#000000" stroke="#000000" points="1357.3751,-219.9579 1367.5028,-216.8467 1357.6454,-212.9631 1357.3751,-219.9579"/>
</a>
</g>
</g>
<!-- I_hotel -->
<g id="hotel" class="node">
<title>I_hotel</title>
<g id="a_hotel"><a xlink:href="industries.html#hotel" xlink:title="Hotel" target="_top">
<polygon fill="none" stroke="#000000" points="1475.7393,-177 1370.7393,-177 1370.7393,-127 1475.7393,-127 1475.7393,-177"/>
<text text-anchor="start" x="1407.398" y="-157.8" font-family="sans-serif" font-size="14.00" fill="#000000">Hotel</text>
<text text-anchor="start" x="1382.8843" y="-137.8" font-family="sans-serif" font-size="14.00" fill="#000000">[Passengers]</text>
</a>
</g>
</g>
<!-- C_alcohol&#45;&gt;I_hotel -->
<g id="edge2" class="edge">
<title>C_alcohol&#45;&gt;I_hotel</title>
<g id="a_edge2"><a xlink:title="Alcohol &#45;&gt; Hotel">
<path fill="none" stroke="#000000" d="M1274.623,-201.7498C1292.6633,-196.0275 1315.4752,-188.7175 1335.7393,-182 1343.9349,-179.2832 1352.5476,-176.3842 1361.0407,-173.4996"/>
<polygon fill="#000000" stroke="#000000" points="1362.2135,-176.7976 1370.5501,-170.2592 1359.9556,-170.1717 1362.2135,-176.7976"/>
</a>
</g>
</g>
<!-- C_engineering_supplies -->
<g id="engineering_supplies" class="node">
<title>C_engineering_supplies</title>
<g id="a_engineering_supplies"><a xlink:href="cargos.html#engineering_supplies" xlink:title="Engineering Supplies" target="_top">
<ellipse fill="none" stroke="#000000" cx="1242.0513" cy="-322" rx="93.8763" ry="18"/>
<text text-anchor="middle" x="1242.0513" y="-317.8" font-family="sans-serif" font-size="14.00" fill="#000000">Engineering Supplies</text>
</a>
</g>
</g>
<!-- C_explosives -->
<g id="explosives" class="node">
<title>C_explosives</title>
<g id="a_explosives"><a xlink:href="cargos.html#explosives" xlink:title="Explosives" target="_top">
<ellipse fill="none" stroke="#000000" cx="908.9867" cy="-231" rx="52.2537" ry="18"/>
<text text-anchor="middle" x="908.9867" y="-226.8" font-family="sans-serif" font-size="14.00" fill="#000000">Explosives</text>
</a>
</g>
</g>
<!-- I_wharf -->
<g id="wharf" class="node">
<title>I_wharf</title>
<g id="a_wharf"><a xlink:href="industries.html#wharf" xlink:title="Wharf" target="_top">
<polygon fill="none" stroke="#000000" points="1085.3634,-230 1024.3634,-230 1024.3634,-194 1085.3634,-194 1085.3634,-230"/>
<text text-anchor="start" x="1036.6945" y="-207.8" font-family="sans-serif" font-size="14.00" fill="#000000">Wharf</text>
</a>
</g>
</g>
<!-- C_explosives&#45;&gt;I_wharf -->
<g id="edge3" class="edge">
<title>C_explosives&#45;&gt;I_wharf</title>
<g id="a_edge3"><a xlink:title="Explosives &#45;&gt; Wharf">
<path fill="none" stroke="#000000" d="M957.9674,-224.6204C976.0631,-222.2635 996.3722,-219.6183 1013.7049,-217.3608"/>
<polygon fill="#000000" stroke="#000000" points="1014.6018,-220.7736 1024.066,-216.0113 1013.6977,-213.8322 1014.6018,-220.7736"/>
</a>
</g>
</g>
<!-- I_wharf&#45;&gt;C_alcohol -->
<g id="edge40" class="edge">
<title>I_wharf&#45;&gt;C_alcohol</title>
<g id="a_edge40"><a xlink:title="Wharf &#45;&gt; Alcohol">
<path fill="none" stroke="#000000" d="M1085.7737,-212C1114.7583,-212 1158.5867,-212 1192.4599,-212"/>
<polygon fill="#000000" stroke="#000000" points="1192.6252,-215.5001 1202.6252,-212 1192.6251,-208.5001 1192.6252,-215.5001"/>
</a>
</g>
</g>
<!-- C_food -->
<g id="food" class="node">
<title>C_food</title>
<g id="a_food"><a xlink:href="cargos.html#food" xlink:title="Food" target="_top">
<ellipse fill="none" stroke="#000000" cx="1242.0513" cy="-152" rx="30.0292" ry="18"/>
<text text-anchor="middle" x="1242.0513" y="-147.8" font-family="sans-serif" font-size="14.00" fill="#000000">Food</text>
</a>
</g>
</g>
<!-- I_wharf&#45;&gt;C_food -->
<g id="edge41" class="edge">
<title>I_wharf&#45;&gt;C_food</title>
<g id="a_edge41"><a xlink:title="Wharf &#45;&gt; Food">
<path fill="none" stroke="#000000" d="M1085.6035,-202.1319C1103.8433,-196.2778 1127.4213,-188.7126 1148.3634,-182 1167.2611,-175.9426 1188.305,-169.2036 1205.6536,-163.6496"/>
<polygon fill="#000000" stroke="#000000" points="1206.9402,-166.9127 1215.397,-160.5305 1204.806,-160.246 1206.9402,-166.9127"/>
</a>
</g>
</g>
<!-- C_farm_supplies -->
<g id="farm_supplies" class="node">
<title>C_farm_supplies</title>
<g id="a_farm_supplies"><a xlink:href="cargos.html#farm_supplies" xlink:title="Farm Supplies" target="_top">
<ellipse fill="none" stroke="#000000" cx="1242.0513" cy="-432" rx="67.2376" ry="18"/>
<text text-anchor="middle" x="1242.0513" y="-427.8" font-family="sans-serif" font-size="14.00" fill="#000000">Farm Supplies</text>
</a>
</g>
</g>
<!-- C_fertiliser -->
<g id="fertiliser" class="node">
<title>C_fertiliser</title>
<g id="a_fertiliser"><a xlink:href="cargos.html#fertiliser" xlink:title="Fertiliser" target="_top">
<ellipse fill="none" stroke="#000000" cx="908.9867" cy="-377" rx="44.0164" ry="18"/>
<text text-anchor="middle" x="908.9867" y="-372.8" font-family="sans-serif" font-size="14.00" fill="#000000">Fertiliser</text>
</a>
</g>
</g>
<!-- I_port -->
<g id="port" class="node">
<title>I_port</title>
<g id="a_port"><a xlink:href="industries.html#port" xlink:title="Port" target="_top">
<polygon fill="none" stroke="#000000" points="1081.8634,-395 1027.8634,-395 1027.8634,-359 1081.8634,-359 1081.8634,-395"/>
<text text-anchor="start" x="1042.5255" y="-372.8" font-family="sans-serif" font-size="14.00" fill="#000000">Port</text>
</a>
</g>
</g>
<!-- C_fertiliser&#45;&gt;I_port -->
<g id="edge4" class="edge">
<title>C_fertiliser&#45;&gt;I_port</title>
<g id="a_edge4"><a xlink:title="Fertiliser &#45;&gt; Port">
<path fill="none" stroke="#000000" d="M953.1504,-377C973.7644,-377 998.0303,-377 1017.6896,-377"/>
<polygon fill="#000000" stroke="#000000" points="1017.795,-380.5001 1027.795,-377 1017.7949,-373.5001 1017.795,-380.5001"/>
</a>
</g>
</g>
<!-- I_port&#45;&gt;C_engineering_supplies -->
<g id="edge33" class="edge">
<title>I_port&#45;&gt;C_engineering_supplies</title>
<g id="a_edge33"><a xlink:title="Port &#45;&gt; Engineering Supplies">
<path fill="none" stroke="#000000" d="M1082.0821,-369.0025C1107.923,-361.4099 1147.6715,-349.7309 1181.0809,-339.9145"/>
<polygon fill="#000000" stroke="#000000" points="1182.1622,-343.2448 1190.7699,-337.0676 1180.1888,-336.5287 1182.1622,-343.2448"/>
</a>
</g>
</g>
<!-- I_port&#45;&gt;C_farm_supplies -->
<g id="edge34" class="edge">
<title>I_port&#45;&gt;C_farm_supplies</title>
<g id="a_edge34"><a xlink:title="Port &#45;&gt; Farm Supplies">
<path fill="none" stroke="#000000" d="M1082.0821,-384.9975C1109.3996,-393.0239 1152.2596,-405.6172 1186.7424,-415.749"/>
<polygon fill="#000000" stroke="#000000" points="1186.105,-419.2096 1196.6861,-418.6707 1188.0784,-412.4935 1186.105,-419.2096"/>
</a>
</g>
</g>
<!-- C_kaolin -->
<g id="kaolin" class="node">
<title>C_kaolin</title>
<g id="a_kaolin"><a xlink:href="cargos.html#kaolin" xlink:title="Kaolin" target="_top">
<ellipse fill="none" stroke="#000000" cx="1242.0513" cy="-492" rx="34.8806" ry="18"/>
<text text-anchor="middle" x="1242.0513" y="-487.8" font-family="sans-serif" font-size="14.00" fill="#000000">Kaolin</text>
</a>
</g>
</g>
<!-- I_port&#45;&gt;C_kaolin -->
<g id="edge35" class="edge">
<title>I_port&#45;&gt;C_kaolin</title>
<g id="a_edge35"><a xlink:title="Port &#45;&gt; Kaolin">
<path fill="none" stroke="#000000" d="M1070.3404,-395.0701C1087.5996,-414.1806 1117.2102,-444.003 1148.3634,-462 1164.1617,-471.1265 1183.0893,-477.8602 1199.7835,-482.6089"/>
<polygon fill="#000000" stroke="#000000" points="1199.2757,-486.0965 1209.8415,-485.3127 1201.093,-479.3365 1199.2757,-486.0965"/>
</a>
</g>
</g>
<!-- C_fish -->
<g id="fish" class="node">
<title>C_fish</title>
<g id="a_fish"><a xlink:href="cargos.html#fish" xlink:title="Fish" target="_top">
<ellipse fill="none" stroke="#000000" cx="908.9867" cy="-18" rx="27" ry="18"/>
<text text-anchor="middle" x="908.9867" y="-13.8" font-family="sans-serif" font-size="14.00" fill="#000000">Fish</text>
</a>
</g>
</g>
<!-- I_fishing_harbour -->
<g id="fishing_harbour" class="node">
<title>I_fishing_harbour</title>
<g id="a_fishing_harbour"><a xlink:href="industries.html#fishing_harbour" xlink:title="Fishing Harbour" target="_top">
<polygon fill="none" stroke="#000000" points="1116.3634,-36 993.3634,-36 993.3634,0 1116.3634,0 1116.3634,-36"/>
<text text-anchor="start" x="1005.5636" y="-13.8" font-family="sans-serif" font-size="14.00" fill="#000000">Fishing Harbour</text>
</a>
</g>
</g>
<!-- C_fish&#45;&gt;I_fishing_harbour -->
<g id="edge5" class="edge">
<title>C_fish&#45;&gt;I_fishing_harbour</title>
<g id="a_edge5"><a xlink:title="Fish &#45;&gt; Fishing Harbour">
<path fill="none" stroke="#000000" d="M936.0831,-18C949.3887,-18 966.117,-18 982.7854,-18"/>
<polygon fill="#000000" stroke="#000000" points="983.125,-21.5001 993.1249,-18 983.1249,-14.5001 983.125,-21.5001"/>
</a>
</g>
</g>
<!-- I_fishing_harbour&#45;&gt;C_food -->
<g id="edge26" class="edge">
<title>I_fishing_harbour&#45;&gt;C_food</title>
<g id="a_edge26"><a xlink:title="Fishing Harbour &#45;&gt; Food">
<path fill="none" stroke="#000000" d="M1095.3175,-36.0264C1102.4933,-39.7006 1109.7732,-43.7522 1116.3634,-48 1154.5992,-72.6456 1194.3322,-107.3044 1218.6324,-129.71"/>
<polygon fill="#000000" stroke="#000000" points="1216.2529,-132.2767 1225.9584,-136.5258 1221.021,-127.1517 1216.2529,-132.2767"/>
</a>
</g>
</g>
<!-- C_food&#45;&gt;I_general_store -->
<g id="edge6" class="edge">
<title>C_food&#45;&gt;I_general_store</title>
<g id="a_edge6"><a xlink:title="Food &#45;&gt; General Store">
<path fill="none" stroke="#000000" d="M1269.331,-160.0244C1288.1418,-165.7306 1313.6399,-173.8083 1335.7393,-182 1347.9421,-186.5233 1360.9354,-191.7734 1373.0724,-196.8724"/>
<polygon fill="#000000" stroke="#000000" points="1372.0184,-200.2272 1382.591,-200.9126 1374.7534,-193.7836 1372.0184,-200.2272"/>
</a>
</g>
</g>
<!-- C_food&#45;&gt;I_hotel -->
<g id="edge7" class="edge">
<title>C_food&#45;&gt;I_hotel</title>
<g id="a_edge7"><a xlink:title="Food &#45;&gt; Hotel">
<path fill="none" stroke="#000000" d="M1272.3781,-152C1296.259,-152 1330.3652,-152 1360.1092,-152"/>
<polygon fill="#000000" stroke="#000000" points="1360.4242,-155.5001 1370.4242,-152 1360.4242,-148.5001 1360.4242,-155.5001"/>
</a>
</g>
</g>
<!-- C_goods -->
<g id="goods" class="node">
<title>C_goods</title>
<g id="a_goods"><a xlink:href="cargos.html#goods" xlink:title="Goods" target="_top">
<ellipse fill="none" stroke="#000000" cx="908.9867" cy="-291" rx="36.3252" ry="18"/>
<text text-anchor="middle" x="908.9867" y="-286.8" font-family="sans-serif" font-size="14.00" fill="#000000">Goods</text>
</a>
</g>
</g>
<!-- C_goods&#45;&gt;I_general_store -->
<g id="edge8" class="edge">
<title>C_goods&#45;&gt;I_general_store</title>
<g id="a_edge8"><a xlink:title="Goods &#45;&gt; General Store">
<path fill="none" stroke="#000000" d="M944.9332,-288.6136C1018.6894,-283.3354 1192.2665,-268.9506 1335.7393,-242 1342.85,-240.6643 1350.2346,-239.0646 1357.5644,-237.3392"/>
<polygon fill="#000000" stroke="#000000" points="1358.6066,-240.6878 1367.4948,-234.9215 1356.9506,-233.8865 1358.6066,-240.6878"/>
</a>
</g>
</g>
<!-- C_goods&#45;&gt;I_wharf -->
<g id="edge10" class="edge">
<title>C_goods&#45;&gt;I_wharf</title>
<g id="a_edge10"><a xlink:title="Goods &#45;&gt; Wharf">
<path fill="none" stroke="#000000" d="M933.7327,-277.5987C956.056,-265.5095 989.2806,-247.5166 1015.29,-233.4311"/>
<polygon fill="#000000" stroke="#000000" points="1017.0326,-236.4677 1024.1592,-228.628 1013.6991,-230.3124 1017.0326,-236.4677"/>
</a>
</g>
</g>
<!-- C_goods&#45;&gt;I_port -->
<g id="edge9" class="edge">
<title>C_goods&#45;&gt;I_port</title>
<g id="a_edge9"><a xlink:title="Goods &#45;&gt; Port">
<path fill="none" stroke="#000000" d="M932.4243,-304.8174C955.7964,-318.5961 992.0078,-339.9442 1018.9959,-355.8547"/>
<polygon fill="#000000" stroke="#000000" points="1017.371,-358.9597 1027.763,-361.0233 1020.9261,-352.9296 1017.371,-358.9597"/>
</a>
</g>
</g>
<!-- I_paper_mill -->
<g id="paper_mill" class="node">
<title>I_paper_mill</title>
<g id="a_paper_mill"><a xlink:href="industries.html#paper_mill" xlink:title="Paper Mill" target="_top">
<polygon fill="none" stroke="#000000" points="1466.2393,-565 1380.2393,-565 1380.2393,-529 1466.2393,-529 1466.2393,-565"/>
<text text-anchor="start" x="1392.1187" y="-542.8" font-family="sans-serif" font-size="14.00" fill="#000000">Paper Mill</text>
</a>
</g>
</g>
<!-- C_kaolin&#45;&gt;I_paper_mill -->
<g id="edge11" class="edge">
<title>C_kaolin&#45;&gt;I_paper_mill</title>
<g id="a_edge11"><a xlink:title="Kaolin &#45;&gt; Paper Mill">
<path fill="none" stroke="#000000" d="M1272.3781,-501.2058C1299.0369,-509.2981 1338.4382,-521.2584 1370.2888,-530.9268"/>
<polygon fill="#000000" stroke="#000000" points="1369.3231,-534.2913 1379.9086,-533.8469 1371.3564,-527.5931 1369.3231,-534.2913"/>
</a>
</g>
</g>
<!-- C_paper -->
<g id="paper" class="node">
<title>C_paper</title>
<g id="a_paper"><a xlink:href="cargos.html#paper" xlink:title="Paper" target="_top">
<ellipse fill="none" stroke="#000000" cx="1544.4445" cy="-377" rx="33.9117" ry="18"/>
<text text-anchor="middle" x="1544.4445" y="-372.8" font-family="sans-serif" font-size="14.00" fill="#000000">Paper</text>
</a>
</g>
</g>
<!-- I_paper_mill&#45;&gt;C_paper -->
<g id="edge30" class="edge">
<title>I_paper_mill&#45;&gt;C_paper</title>
<g id="a_edge30"><a xlink:title="Paper Mill &#45;&gt; Paper">
<path fill="none" stroke="#000000" d="M1436.2104,-528.807C1457.9416,-498.3272 1501.747,-436.8867 1526.4462,-402.2441"/>
<polygon fill="#000000" stroke="#000000" points="1529.3334,-404.2234 1532.2889,-394.0492 1523.6338,-400.1597 1529.3334,-404.2234"/>
</a>
</g>
</g>
<!-- C_paper&#45;&gt;I_port -->
<g id="edge12" class="edge">
<title>C_paper&#45;&gt;I_port</title>
<g id="a_edge12"><a xlink:title="Paper &#45;&gt; Port">
<path fill="none" stroke="#000000" d="M1510.5521,-377C1422.0227,-377 1184.3301,-377 1092.1317,-377"/>
<polygon fill="#000000" stroke="#000000" points="1091.8828,-373.5001 1081.8828,-377 1091.8827,-380.5001 1091.8828,-373.5001"/>
</a>
</g>
</g>
<!-- C_peat -->
<g id="peat" class="node">
<title>C_peat</title>
<g id="a_peat"><a xlink:href="cargos.html#peat" xlink:title="Peat" target="_top">
<ellipse fill="none" stroke="#000000" cx="908.9867" cy="-171" rx="28.0994" ry="18"/>
<text text-anchor="middle" x="908.9867" y="-166.8" font-family="sans-serif" font-size="14.00" fill="#000000">Peat</text>
</a>
</g>
</g>
<!-- C_peat&#45;&gt;I_wharf -->
<g id="edge14" class="edge">
<title>C_peat&#45;&gt;I_wharf</title>
<g id="a_edge14"><a xlink:title="Peat &#45;&gt; Wharf">
<path fill="none" stroke="#000000" d="M935.0665,-178.33C957.1327,-184.5319 989.1215,-193.5226 1014.4937,-200.6537"/>
<polygon fill="#000000" stroke="#000000" points="1013.6352,-204.048 1024.2092,-203.3844 1015.5293,-197.3091 1013.6352,-204.048"/>
</a>
</g>
</g>
<!-- I_power_plant -->
<g id="power_plant" class="node">
<title>I_power_plant</title>
<g id="a_power_plant"><a xlink:href="industries.html#power_plant" xlink:title="Power Plant" target="_top">
<polygon fill="none" stroke="#000000" points="1104.3634,-96 1005.3634,-96 1005.3634,-60 1104.3634,-60 1104.3634,-96"/>
<text text-anchor="start" x="1017.6222" y="-73.8" font-family="sans-serif" font-size="14.00" fill="#000000">Power Plant</text>
</a>
</g>
</g>
<!-- C_peat&#45;&gt;I_power_plant -->
<g id="edge13" class="edge">
<title>C_peat&#45;&gt;I_power_plant</title>
<g id="a_edge13"><a xlink:title="Peat &#45;&gt; Power Plant">
<path fill="none" stroke="#000000" d="M926.4067,-156.468C943.0085,-142.9944 969.0144,-122.8482 993.3634,-108 997.3983,-105.5395 1001.6642,-103.1193 1005.992,-100.7862"/>
<polygon fill="#000000" stroke="#000000" points="1007.6609,-103.8633 1014.908,-96.1348 1004.423,-97.6571 1007.6609,-103.8633"/>
</a>
</g>
</g>
<!-- C_phosphate -->
<g id="phosphate" class="node">
<title>C_phosphate</title>
<g id="a_phosphate"><a xlink:href="cargos.html#phosphate" xlink:title="Phosphate" target="_top">
<ellipse fill="none" stroke="#000000" cx="576.2161" cy="-377" rx="52.2881" ry="18"/>
<text text-anchor="middle" x="576.2161" y="-372.8" font-family="sans-serif" font-size="14.00" fill="#000000">Phosphate</text>
</a>
</g>
</g>
<!-- I_chemical_plant -->
<g id="chemical_plant" class="node">
<title>I_chemical_plant</title>
<g id="a_chemical_plant"><a xlink:href="industries.html#chemical_plant" xlink:title="Chemical Plant" target="_top">
<polygon fill="none" stroke="#000000" points="801.61,-395 683.61,-395 683.61,-359 801.61,-359 801.61,-395"/>
<text text-anchor="start" x="695.5343" y="-372.8" font-family="sans-serif" font-size="14.00" fill="#000000">Chemical Plant</text>
</a>
</g>
</g>
<!-- C_phosphate&#45;&gt;I_chemical_plant -->
<g id="edge15" class="edge">
<title>C_phosphate&#45;&gt;I_chemical_plant</title>
<g id="a_edge15"><a xlink:title="Phosphate &#45;&gt; Chemical Plant">
<path fill="none" stroke="#000000" d="M628.8642,-377C642.9435,-377 658.3784,-377 673.2113,-377"/>
<polygon fill="#000000" stroke="#000000" points="673.36,-380.5001 683.36,-377 673.3599,-373.5001 673.36,-380.5001"/>
</a>
</g>
</g>
<!-- I_chemical_plant&#45;&gt;C_explosives -->
<g id="edge23" class="edge">
<title>I_chemical_plant&#45;&gt;C_explosives</title>
<g id="a_edge23"><a xlink:title="Chemical Plant &#45;&gt; Explosives">
<path fill="none" stroke="#000000" d="M779.1931,-358.9439C794.6162,-350.0103 811.9003,-338.1029 824.61,-324 845.6345,-300.671 834.9675,-283.7568 856.61,-261 860.1306,-257.2982 864.2097,-253.9183 868.5069,-250.8721"/>
<polygon fill="#000000" stroke="#000000" points="870.4422,-253.7888 876.95,-245.4282 866.6489,-247.9056 870.4422,-253.7888"/>
</a>
</g>
</g>
<!-- I_chemical_plant&#45;&gt;C_fertiliser -->
<g id="edge24" class="edge">
<title>I_chemical_plant&#45;&gt;C_fertiliser</title>
<g id="a_edge24"><a xlink:title="Chemical Plant &#45;&gt; Fertiliser">
<path fill="none" stroke="#000000" d="M801.7367,-377C818.9853,-377 837.7439,-377 854.6793,-377"/>
<polygon fill="#000000" stroke="#000000" points="854.9586,-380.5001 864.9586,-377 854.9585,-373.5001 854.9586,-380.5001"/>
</a>
</g>
</g>
<!-- C_pyrite_ore -->
<g id="pyrite_ore" class="node">
<title>C_pyrite_ore</title>
<g id="a_pyrite_ore"><a xlink:href="cargos.html#pyrite_ore" xlink:title="Pyrite Ore" target="_top">
<ellipse fill="none" stroke="#000000" cx="245.9111" cy="-660" rx="49.8223" ry="18"/>
<text text-anchor="middle" x="245.9111" y="-655.8" font-family="sans-serif" font-size="14.00" fill="#000000">Pyrite Ore</text>
</a>
</g>
</g>
<!-- I_pyrite_smelter -->
<g id="pyrite_smelter" class="node">
<title>I_pyrite_smelter</title>
<g id="a_pyrite_smelter"><a xlink:href="industries.html#pyrite_smelter" xlink:title="Pyrite Smelter" target="_top">
<polygon fill="none" stroke="#000000" points="465.3221,-547 354.3221,-547 354.3221,-511 465.3221,-511 465.3221,-547"/>
<text text-anchor="start" x="366.367" y="-524.8" font-family="sans-serif" font-size="14.00" fill="#000000">Pyrite Smelter</text>
</a>
</g>
</g>
<!-- C_pyrite_ore&#45;&gt;I_pyrite_smelter -->
<g id="edge16" class="edge">
<title>C_pyrite_ore&#45;&gt;I_pyrite_smelter</title>
<g id="a_edge16"><a xlink:title="Pyrite Ore &#45;&gt; Pyrite Smelter">
<path fill="none" stroke="#000000" d="M270.9614,-644.3202C279.0458,-639.028 287.9489,-632.9497 295.8221,-627 326.742,-603.6342 360.1478,-574.4024 382.7524,-553.9712"/>
<polygon fill="#000000" stroke="#000000" points="385.2282,-556.4507 390.2757,-547.1355 380.5208,-551.2698 385.2282,-556.4507"/>
</a>
</g>
</g>
<!-- C_sulphur -->
<g id="sulphur" class="node">
<title>C_sulphur</title>
<g id="a_sulphur"><a xlink:href="cargos.html#sulphur" xlink:title="Sulphur" target="_top">
<ellipse fill="none" stroke="#000000" cx="576.2161" cy="-529" rx="40.6767" ry="18"/>
<text text-anchor="middle" x="576.2161" y="-524.8" font-family="sans-serif" font-size="14.00" fill="#000000">Sulphur</text>
</a>
</g>
</g>
<!-- I_pyrite_smelter&#45;&gt;C_sulphur -->
<g id="edge37" class="edge">
<title>I_pyrite_smelter&#45;&gt;C_sulphur</title>
<g id="a_edge37"><a xlink:title="Pyrite Smelter &#45;&gt; Sulphur">
<path fill="none" stroke="#000000" d="M465.6918,-529C484.9696,-529 506.4496,-529 525.3092,-529"/>
<polygon fill="#000000" stroke="#000000" points="525.4866,-532.5001 535.4866,-529 525.4865,-525.5001 525.4866,-532.5001"/>
</a>
</g>
</g>
<!-- C_zinc -->
<g id="zinc" class="node">
<title>C_zinc</title>
<g id="a_zinc"><a xlink:href="cargos.html#zinc" xlink:title="Zinc" target="_top">
<ellipse fill="none" stroke="#000000" cx="908.9867" cy="-437" rx="27" ry="18"/>
<text text-anchor="middle" x="908.9867" y="-432.8" font-family="sans-serif" font-size="14.00" fill="#000000">Zinc</text>
</a>
</g>
</g>
<!-- I_pyrite_smelter&#45;&gt;C_zinc -->
<g id="edge38" class="edge">
<title>I_pyrite_smelter&#45;&gt;C_zinc</title>
<g id="a_edge38"><a xlink:title="Pyrite Smelter &#45;&gt; Zinc">
<path fill="none" stroke="#000000" d="M465.5164,-513.1796C483.9809,-508.2468 504.7007,-503.0449 523.8221,-499 650.5624,-472.1899 802.9227,-450.8321 871.8711,-441.7452"/>
<polygon fill="#000000" stroke="#000000" points="872.7427,-445.1611 882.2041,-440.3932 871.8345,-438.2203 872.7427,-445.1611"/>
</a>
</g>
</g>
<!-- C_sulphur&#45;&gt;I_paper_mill -->
<g id="edge18" class="edge">
<title>C_sulphur&#45;&gt;I_paper_mill</title>
<g id="a_edge18"><a xlink:title="Sulphur &#45;&gt; Paper Mill">
<path fill="none" stroke="#000000" d="M616.1326,-532.5562C678.5565,-537.802 803.1082,-547 908.9867,-547 908.9867,-547 908.9867,-547 1054.8634,-547 1167.023,-547 1298.3915,-547 1370.0134,-547"/>
<polygon fill="#000000" stroke="#000000" points="1370.1377,-550.5001 1380.1377,-547 1370.1376,-543.5001 1370.1377,-550.5001"/>
</a>
</g>
</g>
<!-- C_sulphur&#45;&gt;I_chemical_plant -->
<g id="edge17" class="edge">
<title>C_sulphur&#45;&gt;I_chemical_plant</title>
<g id="a_edge17"><a xlink:title="Sulphur &#45;&gt; Chemical Plant">
<path fill="none" stroke="#000000" d="M594.0231,-512.7333C623.0514,-486.2162 680.7704,-433.4901 715.1005,-402.1298"/>
<polygon fill="#000000" stroke="#000000" points="717.8567,-404.3526 722.8793,-395.0239 713.1355,-399.1843 717.8567,-404.3526"/>
</a>
</g>
</g>
<!-- C_lumber -->
<g id="lumber" class="node">
<title>C_lumber</title>
<g id="a_lumber"><a xlink:href="cargos.html#lumber" xlink:title="Timber" target="_top">
<ellipse fill="none" stroke="#000000" cx="576.2161" cy="-296" rx="37.0969" ry="18"/>
<text text-anchor="middle" x="576.2161" y="-291.8" font-family="sans-serif" font-size="14.00" fill="#000000">Timber</text>
</a>
</g>
</g>
<!-- I_furniture_factory -->
<g id="furniture_factory" class="node">
<title>I_furniture_factory</title>
<g id="a_furniture_factory"><a xlink:href="industries.html#furniture_factory" xlink:title="Furniture Factory" target="_top">
<polygon fill="none" stroke="#000000" points="807.61,-312 677.61,-312 677.61,-276 807.61,-276 807.61,-312"/>
<text text-anchor="start" x="689.3171" y="-289.8" font-family="sans-serif" font-size="14.00" fill="#000000">Furniture Factory</text>
</a>
</g>
</g>
<!-- C_lumber&#45;&gt;I_furniture_factory -->
<g id="edge19" class="edge">
<title>C_lumber&#45;&gt;I_furniture_factory</title>
<g id="a_edge19"><a xlink:title="Timber &#45;&gt; Furniture Factory">
<path fill="none" stroke="#000000" d="M613.5581,-295.5512C629.5585,-295.3588 648.8495,-295.127 667.5827,-294.9018"/>
<polygon fill="#000000" stroke="#000000" points="667.6495,-298.4014 677.6067,-294.7813 667.5653,-291.4019 667.6495,-298.4014"/>
</a>
</g>
</g>
<!-- I_furniture_factory&#45;&gt;C_goods -->
<g id="edge28" class="edge">
<title>I_furniture_factory&#45;&gt;C_goods</title>
<g id="a_edge28"><a xlink:title="Furniture Factory &#45;&gt; Goods">
<path fill="none" stroke="#000000" d="M807.889,-292.8229C826.1335,-292.494 845.5846,-292.1432 862.5025,-291.8382"/>
<polygon fill="#000000" stroke="#000000" points="862.7402,-295.3346 872.6754,-291.6547 862.6139,-288.3357 862.7402,-295.3346"/>
</a>
</g>
</g>
<!-- C_wood -->
<g id="wood" class="node">
<title>C_wood</title>
<g id="a_wood"><a xlink:href="cargos.html#wood" xlink:title="Wood" target="_top">
<ellipse fill="none" stroke="#000000" cx="245.9111" cy="-597" rx="33.1065" ry="18"/>
<text text-anchor="middle" x="245.9111" y="-592.8" font-family="sans-serif" font-size="14.00" fill="#000000">Wood</text>
</a>
</g>
</g>
<!-- C_wood&#45;&gt;I_paper_mill -->
<g id="edge20" class="edge">
<title>C_wood&#45;&gt;I_paper_mill</title>
<g id="a_edge20"><a xlink:title="Wood &#45;&gt; Paper Mill">
<path fill="none" stroke="#000000" d="M279.1985,-597C338.77,-597 467.548,-597 576.2161,-597 576.2161,-597 576.2161,-597 1054.8634,-597 1180.4551,-597 1211.7894,-586.2413 1335.7393,-566 1347.0119,-564.1592 1359.0218,-561.8098 1370.4171,-559.3955"/>
<polygon fill="#000000" stroke="#000000" points="1371.2065,-562.8058 1380.239,-557.2683 1369.7248,-555.9644 1371.2065,-562.8058"/>
</a>
</g>
</g>
<!-- I_sawmill -->
<g id="sawmill" class="node">
<title>I_sawmill</title>
<g id="a_sawmill"><a xlink:href="industries.html#sawmill" xlink:title="Sawmill" target="_top">
<polygon fill="none" stroke="#000000" points="445.8221,-319 373.8221,-319 373.8221,-283 445.8221,-283 445.8221,-319"/>
<text text-anchor="start" x="385.7083" y="-296.8" font-family="sans-serif" font-size="14.00" fill="#000000">Sawmill</text>
</a>
</g>
</g>
<!-- C_wood&#45;&gt;I_sawmill -->
<g id="edge21" class="edge">
<title>C_wood&#45;&gt;I_sawmill</title>
<g id="a_edge21"><a xlink:title="Wood &#45;&gt; Sawmill">
<path fill="none" stroke="#000000" d="M246.8756,-578.7411C250.2126,-533.0247 264.8414,-412.1429 327.8221,-340 337.416,-329.0105 350.7886,-320.8699 363.9546,-314.9545"/>
<polygon fill="#000000" stroke="#000000" points="365.5426,-318.0855 373.4479,-311.0316 362.8692,-311.6161 365.5426,-318.0855"/>
</a>
</g>
</g>
<!-- I_sawmill&#45;&gt;C_lumber -->
<g id="edge39" class="edge">
<title>I_sawmill&#45;&gt;C_lumber</title>
<g id="a_edge39"><a xlink:title="Sawmill &#45;&gt; Timber">
<path fill="none" stroke="#000000" d="M445.9271,-299.9151C470.1444,-299.1874 502.2991,-298.2211 528.6051,-297.4307"/>
<polygon fill="#000000" stroke="#000000" points="528.8492,-300.925 538.7395,-297.1261 528.6389,-293.9282 528.8492,-300.925"/>
</a>
</g>
</g>
<!-- C_zinc&#45;&gt;I_port -->
<g id="edge22" class="edge">
<title>C_zinc&#45;&gt;I_port</title>
<g id="a_edge22"><a xlink:title="Zinc &#45;&gt; Port">
<path fill="none" stroke="#000000" d="M932.1013,-427.4928C955.2124,-417.9871 991.1074,-403.2233 1018.1249,-392.1108"/>
<polygon fill="#000000" stroke="#000000" points="1019.7201,-395.2392 1027.637,-388.1984 1017.0573,-388.7654 1019.7201,-395.2392"/>
</a>
</g>
</g>
<!-- I_fishing_grounds -->
<g id="fishing_grounds" class="node">
<title>I_fishing_grounds</title>
<g id="a_fishing_grounds"><a xlink:href="industries.html#fishing_grounds" xlink:title="Fishing Grounds" target="_top">
<polygon fill="none" stroke="#000000" points="805.61,-36 679.61,-36 679.61,0 805.61,0 805.61,-36"/>
<text text-anchor="start" x="691.2516" y="-13.8" font-family="sans-serif" font-size="14.00" fill="#000000">Fishing Grounds</text>
</a>
</g>
</g>
<!-- I_fishing_grounds&#45;&gt;C_fish -->
<g id="edge25" class="edge">
<title>I_fishing_grounds&#45;&gt;C_fish</title>
<g id="a_edge25"><a xlink:title="Fishing Grounds &#45;&gt; Fish">
<path fill="none" stroke="#000000" d="M805.9845,-18C828.1447,-18 852.2967,-18 871.6403,-18"/>
<polygon fill="#000000" stroke="#000000" points="871.8489,-21.5001 881.8489,-18 871.8488,-14.5001 871.8489,-21.5001"/>
</a>
</g>
</g>
<!-- I_forest -->
<g id="forest" class="node">
<title>I_forest</title>
<g id="a_forest"><a xlink:href="industries.html#forest" xlink:title="Forest" target="_top">
<polygon fill="none" stroke="#000000" points="143,-615 21,-615 21,-565 143,-565 143,-615"/>
<text text-anchor="start" x="62.1621" y="-595.8" font-family="sans-serif" font-size="14.00" fill="#000000">Forest</text>
<text text-anchor="start" x="32.9829" y="-575.8" font-family="sans-serif" font-size="14.00" fill="#000000">[Farm Supplies]</text>
</a>
</g>
</g>
<!-- I_forest&#45;&gt;C_wood -->
<g id="edge27" class="edge">
<title>I_forest&#45;&gt;C_wood</title>
<g id="a_edge27"><a xlink:title="Forest &#45;&gt; Wood">
<path fill="none" stroke="#000000" d="M143.0344,-592.6065C162.9095,-593.4553 184.5438,-594.3792 202.8218,-595.1598"/>
<polygon fill="#000000" stroke="#000000" points="202.7365,-598.6593 212.8768,-595.5892 203.0353,-591.6657 202.7365,-598.6593"/>
</a>
</g>
</g>
<!-- I_herding_coop -->
<g id="herding_coop" class="node">
<title>I_herding_coop</title>
<g id="a_herding_coop"><a xlink:href="industries.html#herding_coop" xlink:title="Herding Co&#45;op" target="_top">
<polygon fill="none" stroke="#000000" points="1115.8634,-170 993.8634,-170 993.8634,-120 1115.8634,-120 1115.8634,-170"/>
<text text-anchor="start" x="1009.3395" y="-150.8" font-family="sans-serif" font-size="14.00" fill="#000000">Herding Co&#45;op</text>
<text text-anchor="start" x="1005.8463" y="-130.8" font-family="sans-serif" font-size="14.00" fill="#000000">[Farm Supplies]</text>
</a>
</g>
</g>
<!-- I_herding_coop&#45;&gt;C_food -->
<g id="edge29" class="edge">
<title>I_herding_coop&#45;&gt;C_food</title>
<g id="a_edge29"><a xlink:title="Herding Co&#45;op &#45;&gt; Food">
<path fill="none" stroke="#000000" d="M1115.8967,-147.2824C1143.9961,-148.3332 1176.5686,-149.5512 1201.5768,-150.4864"/>
<polygon fill="#000000" stroke="#000000" points="1201.6725,-153.9924 1211.7964,-150.8686 1201.9342,-146.9973 1201.6725,-153.9924"/>
</a>
</g>
</g>
<!-- I_peatlands -->
<g id="peatlands" class="node">
<title>I_peatlands</title>
<g id="a_peatlands"><a xlink:href="industries.html#peatlands" xlink:title="Peatlands" target="_top">
<polygon fill="none" stroke="#000000" points="824.61,-196 660.61,-196 660.61,-146 824.61,-146 824.61,-196"/>
<text text-anchor="start" x="711.4757" y="-176.8" font-family="sans-serif" font-size="14.00" fill="#000000">Peatlands</text>
<text text-anchor="start" x="672.5622" y="-156.8" font-family="sans-serif" font-size="14.00" fill="#000000">[Engineering Supplies]</text>
</a>
</g>
</g>
<!-- I_peatlands&#45;&gt;C_peat -->
<g id="edge31" class="edge">
<title>I_peatlands&#45;&gt;C_peat</title>
<g id="a_edge31"><a xlink:title="Peatlands &#45;&gt; Peat">
<path fill="none" stroke="#000000" d="M824.8235,-171C840.5857,-171 856.3946,-171 869.9862,-171"/>
<polygon fill="#000000" stroke="#000000" points="870.3678,-174.5001 880.3678,-171 870.3678,-167.5001 870.3678,-174.5001"/>
</a>
</g>
</g>
<!-- I_phosphate_mine -->
<g id="phosphate_mine" class="node">
<title>I_phosphate_mine</title>
<g id="a_phosphate_mine"><a xlink:href="industries.html#phosphate_mine" xlink:title="Phosphate Mine" target="_top">
<polygon fill="none" stroke="#000000" points="491.8221,-402 327.8221,-402 327.8221,-352 491.8221,-352 491.8221,-402"/>
<text text-anchor="start" x="359.2328" y="-382.8" font-family="sans-serif" font-size="14.00" fill="#000000">Phosphate Mine</text>
<text text-anchor="start" x="339.7743" y="-362.8" font-family="sans-serif" font-size="14.00" fill="#000000">[Engineering Supplies]</text>
</a>
</g>
</g>
<!-- I_phosphate_mine&#45;&gt;C_phosphate -->
<g id="edge32" class="edge">
<title>I_phosphate_mine&#45;&gt;C_phosphate</title>
<g id="a_edge32"><a xlink:title="Phosphate Mine &#45;&gt; Phosphate">
<path fill="none" stroke="#000000" d="M492.0441,-377C499.3056,-377 506.5769,-377 513.6369,-377"/>
<polygon fill="#000000" stroke="#000000" points="513.8035,-380.5001 523.8035,-377 513.8035,-373.5001 513.8035,-380.5001"/>
</a>
</g>
</g>
<!-- I_pyrite_mine -->
<g id="pyrite_mine" class="node">
<title>I_pyrite_mine</title>
<g id="a_pyrite_mine"><a xlink:href="industries.html#pyrite_mine" xlink:title="Pyrite Mine" target="_top">
<polygon fill="none" stroke="#000000" points="164,-689 0,-689 0,-639 164,-639 164,-689"/>
<text text-anchor="start" x="46.9897" y="-669.8" font-family="sans-serif" font-size="14.00" fill="#000000">Pyrite Mine</text>
<text text-anchor="start" x="11.9521" y="-649.8" font-family="sans-serif" font-size="14.00" fill="#000000">[Engineering Supplies]</text>
</a>
</g>
</g>
<!-- I_pyrite_mine&#45;&gt;C_pyrite_ore -->
<g id="edge36" class="edge">
<title>I_pyrite_mine&#45;&gt;C_pyrite_ore</title>
<g id="a_edge36"><a xlink:title="Pyrite Mine &#45;&gt; Pyrite Ore">
<path fill="none" stroke="#000000" d="M164.4357,-661.9883C171.4462,-661.8172 178.452,-661.6462 185.2478,-661.4804"/>
<polygon fill="#000000" stroke="#000000" points="185.8132,-664.9677 195.7248,-661.2247 185.6424,-657.9698 185.8132,-664.9677"/>
</a>
</g>
</g>
</g>
</svg>
