<?xml version="1.0" encoding="UTF-8" standalone="no"?>
<?xml-stylesheet href="static/css/cargoflow_styles.css" type="text/css"?>
<!DOCTYPE svg PUBLIC "-//W3C//DTD SVG 1.1//EN"
 "http://www.w3.org/Graphics/SVG/1.1/DTD/svg11.dtd">
<!-- Generated by graphviz version 2.40.1 (20161225.0304)
 -->
<!-- Title: temperate_basic Pages: 1 -->
<svg width="1448pt" height="528pt"
 viewBox="0.00 0.00 1448.22 528.00" xmlns="http://www.w3.org/2000/svg" xmlns:xlink="http://www.w3.org/1999/xlink">
<g id="page0,1_graph0" class="graph" transform="scale(1 1) rotate(0) translate(4 524)">
<title>temperate_basic</title>
<g id="a_page0,1_graph0"><a xlink:title="Temperate Basic">
<polygon fill="#ffffff" stroke="transparent" points="-4,4 -4,-524 1444.2226,-524 1444.2226,4 -4,4"/>
</a>
</g>
<!-- C_alcohol -->
<g id="alcohol" class="node">
<title>C_alcohol</title>
<g id="a_alcohol"><a xlink:href="cargos.html#alcohol" xlink:title="Alcohol" target="_top">
<ellipse fill="none" stroke="#000000" cx="564.2315" cy="-18" rx="39.2233" ry="18"/>
<text text-anchor="middle" x="564.2315" y="-13.8" font-family="sans-serif" font-size="14.00" fill="#000000">Alcohol</text>
</a>
</g>
</g>
<!-- I_general_store -->
<g id="general_store" class="node">
<title>I_general_store</title>
<g id="a_general_store"><a xlink:href="industries.html#general_store" xlink:title="General Store" target="_top">
<polygon fill="none" stroke="#000000" points="1440.2226,-158 1329.2226,-158 1329.2226,-122 1440.2226,-122 1440.2226,-158"/>
<text text-anchor="start" x="1341.6435" y="-135.8" font-family="sans-serif" font-size="14.00" fill="#000000">General Store</text>
</a>
</g>
</g>
<!-- C_alcohol&#45;&gt;I_general_store -->
<g id="edge1" class="edge">
<title>C_alcohol&#45;&gt;I_general_store</title>
<g id="a_edge1"><a xlink:title="Alcohol &#45;&gt; General Store">
<path fill="none" stroke="#000000" d="M603.5125,-17.6562C672.332,-17.0844 819.185,-16 943.2102,-16 943.2102,-16 943.2102,-16 1130.8981,-16 1220.6996,-16 1311.8919,-79.4359 1356.5448,-115.5629"/>
<polygon fill="#000000" stroke="#000000" points="1354.3843,-118.3178 1364.33,-121.9693 1358.8323,-112.9125 1354.3843,-118.3178"/>
</a>
</g>
</g>
<!-- I_hotel -->
<g id="hotel" class="node">
<title>I_hotel</title>
<g id="a_hotel"><a xlink:href="industries.html#hotel" xlink:title="Hotel" target="_top">
<polygon fill="none" stroke="#000000" points="788.0222,-103 683.0222,-103 683.0222,-53 788.0222,-53 788.0222,-103"/>
<text text-anchor="start" x="719.6809" y="-83.8" font-family="sans-serif" font-size="14.00" fill="#000000">Hotel</text>
<text text-anchor="start" x="695.1672" y="-63.8" font-family="sans-serif" font-size="14.00" fill="#000000">[Passengers]</text>
</a>
</g>
</g>
<!-- C_alcohol&#45;&gt;I_hotel -->
<g id="edge2" class="edge">
<title>C_alcohol&#45;&gt;I_hotel</title>
<g id="a_edge2"><a xlink:title="Alcohol &#45;&gt; Hotel">
<path fill="none" stroke="#000000" d="M595.6489,-29.0049C617.3256,-36.5979 646.8755,-46.9487 673.2307,-56.1804"/>
<polygon fill="#000000" stroke="#000000" points="672.1807,-59.5211 682.7755,-59.5238 674.4948,-52.9146 672.1807,-59.5211"/>
</a>
</g>
</g>
<!-- C_chemicals -->
<g id="chemicals" class="node">
<title>C_chemicals</title>
<g id="a_chemicals"><a xlink:href="cargos.html#chemicals" xlink:title="Chemicals" target="_top">
<ellipse fill="none" stroke="#000000" cx="943.2102" cy="-365" rx="51.2759" ry="18"/>
<text text-anchor="middle" x="943.2102" y="-360.8" font-family="sans-serif" font-size="14.00" fill="#000000">Chemicals</text>
</a>
</g>
</g>
<!-- I_glass_works -->
<g id="glass_works" class="node">
<title>I_glass_works</title>
<g id="a_glass_works"><a xlink:href="industries.html#glass_works" xlink:title="Glass Works" target="_top">
<polygon fill="none" stroke="#000000" points="1182.3981,-443 1079.3981,-443 1079.3981,-407 1182.3981,-407 1182.3981,-443"/>
<text text-anchor="start" x="1091.8522" y="-420.8" font-family="sans-serif" font-size="14.00" fill="#000000">Glass Works</text>
</a>
</g>
</g>
<!-- C_chemicals&#45;&gt;I_glass_works -->
<g id="edge3" class="edge">
<title>C_chemicals&#45;&gt;I_glass_works</title>
<g id="a_edge3"><a xlink:title="Chemicals &#45;&gt; Glass Works">
<path fill="none" stroke="#000000" d="M981.1916,-377.1419C1006.5018,-385.233 1040.3356,-396.049 1069.4352,-405.3516"/>
<polygon fill="#000000" stroke="#000000" points="1068.5121,-408.7309 1079.103,-408.4422 1070.6437,-402.0633 1068.5121,-408.7309"/>
</a>
</g>
</g>
<!-- I_metal_workshop -->
<g id="metal_workshop" class="node">
<title>I_metal_workshop</title>
<g id="a_metal_workshop"><a xlink:href="industries.html#metal_workshop" xlink:title="Metal Workshop" target="_top">
<polygon fill="none" stroke="#000000" points="1192.8981,-383 1068.8981,-383 1068.8981,-347 1192.8981,-347 1192.8981,-383"/>
<text text-anchor="start" x="1080.4489" y="-360.8" font-family="sans-serif" font-size="14.00" fill="#000000">Metal Workshop</text>
</a>
</g>
</g>
<!-- C_chemicals&#45;&gt;I_metal_workshop -->
<g id="edge4" class="edge">
<title>C_chemicals&#45;&gt;I_metal_workshop</title>
<g id="a_edge4"><a xlink:title="Chemicals &#45;&gt; Metal Workshop">
<path fill="none" stroke="#000000" d="M994.9936,-365C1014.5753,-365 1037.2377,-365 1058.3761,-365"/>
<polygon fill="#000000" stroke="#000000" points="1058.6106,-368.5001 1068.6105,-365 1058.6105,-361.5001 1058.6106,-368.5001"/>
</a>
</g>
</g>
<!-- C_goods -->
<g id="goods" class="node">
<title>C_goods</title>
<g id="a_goods"><a xlink:href="cargos.html#goods" xlink:title="Goods" target="_top">
<ellipse fill="none" stroke="#000000" cx="1261.0603" cy="-195" rx="36.3252" ry="18"/>
<text text-anchor="middle" x="1261.0603" y="-190.8" font-family="sans-serif" font-size="14.00" fill="#000000">Goods</text>
</a>
</g>
</g>
<!-- I_glass_works&#45;&gt;C_goods -->
<g id="edge29" class="edge">
<title>I_glass_works&#45;&gt;C_goods</title>
<g id="a_edge29"><a xlink:title="Glass Works &#45;&gt; Goods">
<path fill="none" stroke="#000000" d="M1178.7228,-406.8843C1183.9657,-403.5058 1188.8572,-399.5675 1192.8981,-395 1237.0598,-345.0831 1252.87,-265.2824 1258.3277,-223.1576"/>
<polygon fill="#000000" stroke="#000000" points="1261.8233,-223.4014 1259.5294,-213.0578 1254.8723,-222.5742 1261.8233,-223.4014"/>
</a>
</g>
</g>
<!-- I_metal_workshop&#45;&gt;C_goods -->
<g id="edge31" class="edge">
<title>I_metal_workshop&#45;&gt;C_goods</title>
<g id="a_edge31"><a xlink:title="Metal Workshop &#45;&gt; Goods">
<path fill="none" stroke="#000000" d="M1144.8277,-346.807C1168.1649,-316.3272 1215.2075,-254.8867 1241.732,-220.2441"/>
<polygon fill="#000000" stroke="#000000" points="1244.7061,-222.1169 1248.0065,-212.0492 1239.1482,-217.8613 1244.7061,-222.1169"/>
</a>
</g>
</g>
<!-- C_coal -->
<g id="coal" class="node">
<title>C_coal</title>
<g id="a_coal"><a xlink:href="cargos.html#coal" xlink:title="Coal" target="_top">
<ellipse fill="none" stroke="#000000" cx="564.2315" cy="-361" rx="28.0908" ry="18"/>
<text text-anchor="middle" x="564.2315" y="-356.8" font-family="sans-serif" font-size="14.00" fill="#000000">Coal</text>
</a>
</g>
</g>
<!-- I_blast_furnace -->
<g id="blast_furnace" class="node">
<title>I_blast_furnace</title>
<g id="a_blast_furnace"><a xlink:href="industries.html#blast_furnace" xlink:title="Steel Mill" target="_top">
<polygon fill="none" stroke="#000000" points="775.5222,-439 695.5222,-439 695.5222,-403 775.5222,-403 775.5222,-439"/>
<text text-anchor="start" x="707.1257" y="-416.8" font-family="sans-serif" font-size="14.00" fill="#000000">Steel Mill</text>
</a>
</g>
</g>
<!-- C_coal&#45;&gt;I_blast_furnace -->
<g id="edge5" class="edge">
<title>C_coal&#45;&gt;I_blast_furnace</title>
<g id="a_edge5"><a xlink:title="Coal &#45;&gt; Steel Mill">
<path fill="none" stroke="#000000" d="M589.1387,-369.7245C614.3652,-378.5609 654.0762,-392.471 685.776,-403.5748"/>
<polygon fill="#000000" stroke="#000000" points="684.7369,-406.9193 695.3317,-406.922 687.0511,-400.3129 684.7369,-406.9193"/>
</a>
</g>
</g>
<!-- C_steel -->
<g id="steel" class="node">
<title>C_steel</title>
<g id="a_steel"><a xlink:href="cargos.html#steel" xlink:title="Steel" target="_top">
<ellipse fill="none" stroke="#000000" cx="943.2102" cy="-425" rx="30.0292" ry="18"/>
<text text-anchor="middle" x="943.2102" y="-420.8" font-family="sans-serif" font-size="14.00" fill="#000000">Steel</text>
</a>
</g>
</g>
<!-- I_blast_furnace&#45;&gt;C_steel -->
<g id="edge38" class="edge">
<title>I_blast_furnace&#45;&gt;C_steel</title>
<g id="a_edge38"><a xlink:title="Steel Mill &#45;&gt; Steel">
<path fill="none" stroke="#000000" d="M775.5665,-421.7712C812.0432,-422.4738 865.667,-423.5065 902.3856,-424.2137"/>
<polygon fill="#000000" stroke="#000000" points="902.6669,-427.7197 912.7324,-424.413 902.8017,-420.721 902.6669,-427.7197"/>
</a>
</g>
</g>
<!-- C_engineering_supplies -->
<g id="engineering_supplies" class="node">
<title>C_engineering_supplies</title>
<g id="a_engineering_supplies"><a xlink:href="cargos.html#engineering_supplies" xlink:title="Engineering Supplies" target="_top">
<ellipse fill="none" stroke="#000000" cx="943.2102" cy="-305" rx="93.8763" ry="18"/>
<text text-anchor="middle" x="943.2102" y="-300.8" font-family="sans-serif" font-size="14.00" fill="#000000">Engineering Supplies</text>
</a>
</g>
</g>
<!-- C_farm_supplies -->
<g id="farm_supplies" class="node">
<title>C_farm_supplies</title>
<g id="a_farm_supplies"><a xlink:href="cargos.html#farm_supplies" xlink:title="Farm Supplies" target="_top">
<ellipse fill="none" stroke="#000000" cx="943.2102" cy="-245" rx="67.2376" ry="18"/>
<text text-anchor="middle" x="943.2102" y="-240.8" font-family="sans-serif" font-size="14.00" fill="#000000">Farm Supplies</text>
</a>
</g>
</g>
<!-- C_fish -->
<g id="fish" class="node">
<title>C_fish</title>
<g id="a_fish"><a xlink:href="cargos.html#fish" xlink:title="Fish" target="_top">
<ellipse fill="none" stroke="#000000" cx="231.9704" cy="-198" rx="27" ry="18"/>
<text text-anchor="middle" x="231.9704" y="-193.8" font-family="sans-serif" font-size="14.00" fill="#000000">Fish</text>
</a>
</g>
</g>
<!-- I_fishing_harbour -->
<g id="fishing_harbour" class="node">
<title>I_fishing_harbour</title>
<g id="a_fishing_harbour"><a xlink:href="industries.html#fishing_harbour" xlink:title="Fishing Harbour" target="_top">
<polygon fill="none" stroke="#000000" points="454.4409,-216 331.4409,-216 331.4409,-180 454.4409,-180 454.4409,-216"/>
<text text-anchor="start" x="343.6411" y="-193.8" font-family="sans-serif" font-size="14.00" fill="#000000">Fishing Harbour</text>
</a>
</g>
</g>
<!-- C_fish&#45;&gt;I_fishing_harbour -->
<g id="edge6" class="edge">
<title>C_fish&#45;&gt;I_fishing_harbour</title>
<g id="a_edge6"><a xlink:title="Fish &#45;&gt; Fishing Harbour">
<path fill="none" stroke="#000000" d="M259.2769,-198C276.3896,-198 299.3079,-198 321.3292,-198"/>
<polygon fill="#000000" stroke="#000000" points="321.3599,-201.5001 331.3599,-198 321.3599,-194.5001 321.3599,-201.5001"/>
</a>
</g>
</g>
<!-- C_food -->
<g id="food" class="node">
<title>C_food</title>
<g id="a_food"><a xlink:href="cargos.html#food" xlink:title="Food" target="_top">
<ellipse fill="none" stroke="#000000" cx="564.2315" cy="-140" rx="30.0292" ry="18"/>
<text text-anchor="middle" x="564.2315" y="-135.8" font-family="sans-serif" font-size="14.00" fill="#000000">Food</text>
</a>
</g>
</g>
<!-- I_fishing_harbour&#45;&gt;C_food -->
<g id="edge28" class="edge">
<title>I_fishing_harbour&#45;&gt;C_food</title>
<g id="a_edge28"><a xlink:title="Fishing Harbour &#45;&gt; Food">
<path fill="none" stroke="#000000" d="M446.1994,-179.9664C472.8384,-170.9462 504.3799,-160.2661 528.1525,-152.2166"/>
<polygon fill="#000000" stroke="#000000" points="529.4789,-155.4627 537.8281,-148.9403 527.2338,-148.8325 529.4789,-155.4627"/>
</a>
</g>
</g>
<!-- C_food&#45;&gt;I_general_store -->
<g id="edge7" class="edge">
<title>C_food&#45;&gt;I_general_store</title>
<g id="a_edge7"><a xlink:title="Food &#45;&gt; General Store">
<path fill="none" stroke="#000000" d="M594.6883,-140C659.0424,-140 813.5942,-140 943.2102,-140 943.2102,-140 943.2102,-140 1130.8981,-140 1194.5931,-140 1267.2788,-140 1318.4972,-140"/>
<polygon fill="#000000" stroke="#000000" points="1318.7674,-143.5001 1328.7674,-140 1318.7674,-136.5001 1318.7674,-143.5001"/>
</a>
</g>
</g>
<!-- C_food&#45;&gt;I_hotel -->
<g id="edge8" class="edge">
<title>C_food&#45;&gt;I_hotel</title>
<g id="a_edge8"><a xlink:title="Food &#45;&gt; Hotel">
<path fill="none" stroke="#000000" d="M590.2469,-130.5835C612.2771,-122.6095 644.7571,-110.8531 673.422,-100.4777"/>
<polygon fill="#000000" stroke="#000000" points="674.7645,-103.714 682.9762,-97.0194 672.382,-97.1319 674.7645,-103.714"/>
</a>
</g>
</g>
<!-- I_port -->
<g id="port" class="node">
<title>I_port</title>
<g id="a_port"><a xlink:href="industries.html#port" xlink:title="Port" target="_top">
<polygon fill="none" stroke="#000000" points="762.5222,-263 708.5222,-263 708.5222,-227 762.5222,-227 762.5222,-263"/>
<text text-anchor="start" x="723.1843" y="-240.8" font-family="sans-serif" font-size="14.00" fill="#000000">Port</text>
</a>
</g>
</g>
<!-- C_food&#45;&gt;I_port -->
<g id="edge9" class="edge">
<title>C_food&#45;&gt;I_port</title>
<g id="a_edge9"><a xlink:title="Food &#45;&gt; Port">
<path fill="none" stroke="#000000" d="M585.5793,-153.086C614.064,-170.547 664.9104,-201.7154 699.4127,-222.8651"/>
<polygon fill="#000000" stroke="#000000" points="697.8883,-226.0359 708.2431,-228.2781 701.5466,-220.0679 697.8883,-226.0359"/>
</a>
</g>
</g>
<!-- I_port&#45;&gt;C_chemicals -->
<g id="edge34" class="edge">
<title>I_port&#45;&gt;C_chemicals</title>
<g id="a_edge34"><a xlink:title="Port &#45;&gt; Chemicals">
<path fill="none" stroke="#000000" d="M754.184,-263.2576C775.6072,-283.3298 812.5711,-315.3337 849.5222,-335 862.2607,-341.7797 876.7961,-347.3521 890.5547,-351.7756"/>
<polygon fill="#000000" stroke="#000000" points="889.8123,-355.2087 900.399,-354.7944 891.8646,-348.5163 889.8123,-355.2087"/>
</a>
</g>
</g>
<!-- I_port&#45;&gt;C_engineering_supplies -->
<g id="edge35" class="edge">
<title>I_port&#45;&gt;C_engineering_supplies</title>
<g id="a_edge35"><a xlink:title="Port &#45;&gt; Engineering Supplies">
<path fill="none" stroke="#000000" d="M762.6738,-252.844C792.6774,-261.5118 841.9801,-275.7552 881.4883,-287.1689"/>
<polygon fill="#000000" stroke="#000000" points="880.7255,-290.5916 891.304,-290.0046 882.6683,-283.8666 880.7255,-290.5916"/>
</a>
</g>
</g>
<!-- I_port&#45;&gt;C_farm_supplies -->
<g id="edge36" class="edge">
<title>I_port&#45;&gt;C_farm_supplies</title>
<g id="a_edge36"><a xlink:title="Port &#45;&gt; Farm Supplies">
<path fill="none" stroke="#000000" d="M762.6738,-245C788.805,-245 829.5751,-245 865.764,-245"/>
<polygon fill="#000000" stroke="#000000" points="865.8337,-248.5001 875.8336,-245 865.8336,-241.5001 865.8337,-248.5001"/>
</a>
</g>
</g>
<!-- C_fruits -->
<g id="fruits" class="node">
<title>C_fruits</title>
<g id="a_fruits"><a xlink:href="cargos.html#fruits" xlink:title="Fruit" target="_top">
<ellipse fill="none" stroke="#000000" cx="231.9704" cy="-18" rx="27.589" ry="18"/>
<text text-anchor="middle" x="231.9704" y="-13.8" font-family="sans-serif" font-size="14.00" fill="#000000">Fruit</text>
</a>
</g>
</g>
<!-- I_brewery -->
<g id="brewery" class="node">
<title>I_brewery</title>
<g id="a_brewery"><a xlink:href="industries.html#brewery" xlink:title="Cider Mill" target="_top">
<polygon fill="none" stroke="#000000" points="433.9409,-36 351.9409,-36 351.9409,0 433.9409,0 433.9409,-36"/>
<text text-anchor="start" x="363.7719" y="-13.8" font-family="sans-serif" font-size="14.00" fill="#000000">Cider Mill</text>
</a>
</g>
</g>
<!-- C_fruits&#45;&gt;I_brewery -->
<g id="edge10" class="edge">
<title>C_fruits&#45;&gt;I_brewery</title>
<g id="a_edge10"><a xlink:title="Fruit &#45;&gt; Cider Mill">
<path fill="none" stroke="#000000" d="M260.0093,-18C282.4535,-18 314.5352,-18 341.5586,-18"/>
<polygon fill="#000000" stroke="#000000" points="341.6373,-21.5001 351.6372,-18 341.6372,-14.5001 341.6373,-21.5001"/>
</a>
</g>
</g>
<!-- I_brewery&#45;&gt;C_alcohol -->
<g id="edge20" class="edge">
<title>I_brewery&#45;&gt;C_alcohol</title>
<g id="a_edge20"><a xlink:title="Cider Mill &#45;&gt; Alcohol">
<path fill="none" stroke="#000000" d="M433.9692,-18C458.2392,-18 489.1411,-18 514.7554,-18"/>
<polygon fill="#000000" stroke="#000000" points="515.0104,-21.5001 525.0104,-18 515.0103,-14.5001 515.0104,-21.5001"/>
</a>
</g>
</g>
<!-- C_goods&#45;&gt;I_general_store -->
<g id="edge11" class="edge">
<title>C_goods&#45;&gt;I_general_store</title>
<g id="a_edge11"><a xlink:title="Goods &#45;&gt; General Store">
<path fill="none" stroke="#000000" d="M1288.1985,-182.93C1301.8682,-176.8503 1318.8827,-169.2829 1334.8023,-162.2025"/>
<polygon fill="#000000" stroke="#000000" points="1336.3007,-165.3667 1344.0155,-158.1049 1333.4561,-158.9708 1336.3007,-165.3667"/>
</a>
</g>
</g>
<!-- C_goods&#45;&gt;I_port -->
<g id="edge12" class="edge">
<title>C_goods&#45;&gt;I_port</title>
<g id="a_edge12"><a xlink:title="Goods &#45;&gt; Port">
<path fill="none" stroke="#000000" d="M1224.7489,-194.2346C1152.7202,-193.2726 986.851,-193.8314 849.5222,-215 823.3872,-219.0286 794.5927,-226.6331 772.4813,-233.1774"/>
<polygon fill="#000000" stroke="#000000" points="771.3871,-229.8516 762.8258,-236.093 773.4106,-236.5528 771.3871,-229.8516"/>
</a>
</g>
</g>
<!-- C_iron_ore -->
<g id="iron_ore" class="node">
<title>C_iron_ore</title>
<g id="a_iron_ore"><a xlink:href="cargos.html#iron_ore" xlink:title="Iron Ore" target="_top">
<ellipse fill="none" stroke="#000000" cx="564.2315" cy="-481" rx="42.5888" ry="18"/>
<text text-anchor="middle" x="564.2315" y="-476.8" font-family="sans-serif" font-size="14.00" fill="#000000">Iron Ore</text>
</a>
</g>
</g>
<!-- C_iron_ore&#45;&gt;I_blast_furnace -->
<g id="edge13" class="edge">
<title>C_iron_ore&#45;&gt;I_blast_furnace</title>
<g id="a_edge13"><a xlink:title="Iron Ore &#45;&gt; Steel Mill">
<path fill="none" stroke="#000000" d="M597.2581,-469.4314C622.3036,-460.6584 657.1509,-448.452 685.5948,-438.4887"/>
<polygon fill="#000000" stroke="#000000" points="687.0815,-441.6765 695.3622,-435.0673 684.7673,-435.0701 687.0815,-441.6765"/>
</a>
</g>
</g>
<!-- C_kaolin -->
<g id="kaolin" class="node">
<title>C_kaolin</title>
<g id="a_kaolin"><a xlink:href="cargos.html#kaolin" xlink:title="Kaolin" target="_top">
<ellipse fill="none" stroke="#000000" cx="564.2315" cy="-245" rx="34.8806" ry="18"/>
<text text-anchor="middle" x="564.2315" y="-240.8" font-family="sans-serif" font-size="14.00" fill="#000000">Kaolin</text>
</a>
</g>
</g>
<!-- C_kaolin&#45;&gt;I_port -->
<g id="edge14" class="edge">
<title>C_kaolin&#45;&gt;I_port</title>
<g id="a_edge14"><a xlink:title="Kaolin &#45;&gt; Port">
<path fill="none" stroke="#000000" d="M599.3081,-245C628.0749,-245 668.7003,-245 698.0905,-245"/>
<polygon fill="#000000" stroke="#000000" points="698.3674,-248.5001 708.3674,-245 698.3674,-241.5001 698.3674,-248.5001"/>
</a>
</g>
</g>
<!-- C_livestock -->
<g id="livestock" class="node">
<title>C_livestock</title>
<g id="a_livestock"><a xlink:href="cargos.html#livestock" xlink:title="Livestock" target="_top">
<ellipse fill="none" stroke="#000000" cx="231.9704" cy="-78" rx="46.9409" ry="18"/>
<text text-anchor="middle" x="231.9704" y="-73.8" font-family="sans-serif" font-size="14.00" fill="#000000">Livestock</text>
</a>
</g>
</g>
<!-- I_stockyard -->
<g id="stockyard" class="node">
<title>I_stockyard</title>
<g id="a_stockyard"><a xlink:href="industries.html#stockyard" xlink:title="Stockyard" target="_top">
<polygon fill="none" stroke="#000000" points="435.9409,-96 349.9409,-96 349.9409,-60 435.9409,-60 435.9409,-96"/>
<text text-anchor="start" x="361.8168" y="-73.8" font-family="sans-serif" font-size="14.00" fill="#000000">Stockyard</text>
</a>
</g>
</g>
<!-- C_livestock&#45;&gt;I_stockyard -->
<g id="edge15" class="edge">
<title>C_livestock&#45;&gt;I_stockyard</title>
<g id="a_edge15"><a xlink:title="Livestock &#45;&gt; Stockyard">
<path fill="none" stroke="#000000" d="M278.9625,-78C298.0071,-78 320.0969,-78 339.7308,-78"/>
<polygon fill="#000000" stroke="#000000" points="339.7451,-81.5001 349.745,-78 339.745,-74.5001 339.7451,-81.5001"/>
</a>
</g>
</g>
<!-- I_stockyard&#45;&gt;C_food -->
<g id="edge39" class="edge">
<title>I_stockyard&#45;&gt;C_food</title>
<g id="a_edge39"><a xlink:title="Stockyard &#45;&gt; Food">
<path fill="none" stroke="#000000" d="M436.1647,-93.6452C464.7637,-103.9968 501.8055,-117.4044 528.6892,-127.1352"/>
<polygon fill="#000000" stroke="#000000" points="527.5055,-130.4289 538.0997,-130.5414 529.8879,-123.8468 527.5055,-130.4289"/>
</a>
</g>
</g>
<!-- C_milk -->
<g id="milk" class="node">
<title>C_milk</title>
<g id="a_milk"><a xlink:href="cargos.html#milk" xlink:title="Milk" target="_top">
<ellipse fill="none" stroke="#000000" cx="231.9704" cy="-138" rx="27" ry="18"/>
<text text-anchor="middle" x="231.9704" y="-133.8" font-family="sans-serif" font-size="14.00" fill="#000000">Milk</text>
</a>
</g>
</g>
<!-- I_dairy -->
<g id="dairy" class="node">
<title>I_dairy</title>
<g id="a_dairy"><a xlink:href="industries.html#dairy" xlink:title="Dairy" target="_top">
<polygon fill="none" stroke="#000000" points="420.9409,-156 364.9409,-156 364.9409,-120 420.9409,-120 420.9409,-156"/>
<text text-anchor="start" x="376.6064" y="-133.8" font-family="sans-serif" font-size="14.00" fill="#000000">Dairy</text>
</a>
</g>
</g>
<!-- C_milk&#45;&gt;I_dairy -->
<g id="edge16" class="edge">
<title>C_milk&#45;&gt;I_dairy</title>
<g id="a_edge16"><a xlink:title="Milk &#45;&gt; Dairy">
<path fill="none" stroke="#000000" d="M259.2769,-138C285.4001,-138 325.052,-138 354.3897,-138"/>
<polygon fill="#000000" stroke="#000000" points="354.6875,-141.5001 364.6875,-138 354.6875,-134.5001 354.6875,-141.5001"/>
</a>
</g>
</g>
<!-- I_dairy&#45;&gt;C_food -->
<g id="edge23" class="edge">
<title>I_dairy&#45;&gt;C_food</title>
<g id="a_edge23"><a xlink:title="Dairy &#45;&gt; Food">
<path fill="none" stroke="#000000" d="M421.226,-138.3303C449.1425,-138.6562 492.1068,-139.1579 523.6583,-139.5263"/>
<polygon fill="#000000" stroke="#000000" points="523.8423,-143.0286 533.8826,-139.6456 523.9241,-136.029 523.8423,-143.0286"/>
</a>
</g>
</g>
<!-- C_sand -->
<g id="sand" class="node">
<title>C_sand</title>
<g id="a_sand"><a xlink:href="cargos.html#sand" xlink:title="Sand" target="_top">
<ellipse fill="none" stroke="#000000" cx="943.2102" cy="-485" rx="30.5224" ry="18"/>
<text text-anchor="middle" x="943.2102" y="-480.8" font-family="sans-serif" font-size="14.00" fill="#000000">Sand</text>
</a>
</g>
</g>
<!-- C_sand&#45;&gt;I_glass_works -->
<g id="edge17" class="edge">
<title>C_sand&#45;&gt;I_glass_works</title>
<g id="a_edge17"><a xlink:title="Sand &#45;&gt; Glass Works">
<path fill="none" stroke="#000000" d="M970.5016,-476.2755C996.3189,-468.0222 1035.9817,-455.3428 1069.4057,-444.6579"/>
<polygon fill="#000000" stroke="#000000" points="1070.6427,-447.937 1079.1021,-441.5581 1068.5112,-441.2694 1070.6427,-447.937"/>
</a>
</g>
</g>
<!-- C_scrap_metal -->
<g id="scrap_metal" class="node">
<title>C_scrap_metal</title>
<g id="a_scrap_metal"><a xlink:href="cargos.html#scrap_metal" xlink:title="Scrap Metal" target="_top">
<ellipse fill="none" stroke="#000000" cx="564.2315" cy="-421" rx="57.0821" ry="18"/>
<text text-anchor="middle" x="564.2315" y="-416.8" font-family="sans-serif" font-size="14.00" fill="#000000">Scrap Metal</text>
</a>
</g>
</g>
<!-- C_scrap_metal&#45;&gt;I_blast_furnace -->
<g id="edge18" class="edge">
<title>C_scrap_metal&#45;&gt;I_blast_furnace</title>
<g id="a_edge18"><a xlink:title="Scrap Metal &#45;&gt; Steel Mill">
<path fill="none" stroke="#000000" d="M621.7454,-421C642.3536,-421 665.4065,-421 685.3446,-421"/>
<polygon fill="#000000" stroke="#000000" points="685.4577,-424.5001 695.4576,-421 685.4576,-417.5001 685.4577,-424.5001"/>
</a>
</g>
</g>
<!-- C_steel&#45;&gt;I_metal_workshop -->
<g id="edge19" class="edge">
<title>C_steel&#45;&gt;I_metal_workshop</title>
<g id="a_edge19"><a xlink:title="Steel &#45;&gt; Metal Workshop">
<path fill="none" stroke="#000000" d="M970.1013,-416.4035C994.6277,-408.5629 1031.8854,-396.6523 1064.3629,-386.2699"/>
<polygon fill="#000000" stroke="#000000" points="1065.81,-389.4819 1074.2693,-383.1031 1063.6784,-382.8143 1065.81,-389.4819"/>
</a>
</g>
</g>
<!-- I_clay_pit -->
<g id="clay_pit" class="node">
<title>I_clay_pit</title>
<g id="a_clay_pit"><a xlink:href="industries.html#clay_pit" xlink:title="Clay Pit" target="_top">
<polygon fill="none" stroke="#000000" points="474.9409,-290 310.9409,-290 310.9409,-240 474.9409,-240 474.9409,-290"/>
<text text-anchor="start" x="368.8237" y="-270.8" font-family="sans-serif" font-size="14.00" fill="#000000">Clay Pit</text>
<text text-anchor="start" x="322.893" y="-250.8" font-family="sans-serif" font-size="14.00" fill="#000000">[Engineering Supplies]</text>
</a>
</g>
</g>
<!-- I_clay_pit&#45;&gt;C_kaolin -->
<g id="edge21" class="edge">
<title>I_clay_pit&#45;&gt;C_kaolin</title>
<g id="a_edge21"><a xlink:title="Clay Pit &#45;&gt; Kaolin">
<path fill="none" stroke="#000000" d="M475.0743,-255.4101C490.5373,-253.6046 506.1532,-251.7813 519.9012,-250.176"/>
<polygon fill="#000000" stroke="#000000" points="520.4903,-253.6311 530.0169,-248.9949 519.6784,-246.6784 520.4903,-253.6311"/>
</a>
</g>
</g>
<!-- I_coal_mine -->
<g id="coal_mine" class="node">
<title>I_coal_mine</title>
<g id="a_coal_mine"><a xlink:href="industries.html#coal_mine" xlink:title="Coal Mine" target="_top">
<polygon fill="none" stroke="#000000" points="474.9409,-372 310.9409,-372 310.9409,-322 474.9409,-322 474.9409,-372"/>
<text text-anchor="start" x="361.4272" y="-352.8" font-family="sans-serif" font-size="14.00" fill="#000000">Coal Mine</text>
<text text-anchor="start" x="322.893" y="-332.8" font-family="sans-serif" font-size="14.00" fill="#000000">[Engineering Supplies]</text>
</a>
</g>
</g>
<!-- I_coal_mine&#45;&gt;C_coal -->
<g id="edge22" class="edge">
<title>I_coal_mine&#45;&gt;C_coal</title>
<g id="a_edge22"><a xlink:title="Coal Mine &#45;&gt; Coal">
<path fill="none" stroke="#000000" d="M475.0743,-353.713C492.9333,-355.1726 510.9963,-356.649 526.1501,-357.8875"/>
<polygon fill="#000000" stroke="#000000" points="525.8863,-361.3775 536.1382,-358.7039 526.4566,-354.4008 525.8863,-361.3775"/>
</a>
</g>
</g>
<!-- I_dairy_farm -->
<g id="dairy_farm" class="node">
<title>I_dairy_farm</title>
<g id="a_dairy_farm"><a xlink:href="industries.html#dairy_farm" xlink:title="Dairy Farm" target="_top">
<polygon fill="none" stroke="#000000" points="137.5,-146 15.5,-146 15.5,-96 137.5,-96 137.5,-146"/>
<text text-anchor="start" x="41.8896" y="-126.8" font-family="sans-serif" font-size="14.00" fill="#000000">Dairy Farm</text>
<text text-anchor="start" x="27.4829" y="-106.8" font-family="sans-serif" font-size="14.00" fill="#000000">[Farm Supplies]</text>
</a>
</g>
</g>
<!-- I_dairy_farm&#45;&gt;C_livestock -->
<g id="edge24" class="edge">
<title>I_dairy_farm&#45;&gt;C_livestock</title>
<g id="a_edge24"><a xlink:title="Dairy Farm &#45;&gt; Livestock">
<path fill="none" stroke="#000000" d="M137.946,-104.0053C153.2556,-99.7709 169.4477,-95.2925 184.0005,-91.2675"/>
<polygon fill="#000000" stroke="#000000" points="185.0774,-94.6011 193.7825,-88.562 183.2114,-87.8544 185.0774,-94.6011"/>
</a>
</g>
</g>
<!-- I_dairy_farm&#45;&gt;C_milk -->
<g id="edge25" class="edge">
<title>I_dairy_farm&#45;&gt;C_milk</title>
<g id="a_edge25"><a xlink:title="Dairy Farm &#45;&gt; Milk">
<path fill="none" stroke="#000000" d="M137.946,-127.7189C157.205,-129.8247 177.8606,-132.0833 194.8924,-133.9457"/>
<polygon fill="#000000" stroke="#000000" points="194.6627,-137.4413 204.9839,-135.0491 195.4236,-130.4828 194.6627,-137.4413"/>
</a>
</g>
</g>
<!-- I_dredging_site -->
<g id="dredging_site" class="node">
<title>I_dredging_site</title>
<g id="a_dredging_site"><a xlink:href="industries.html#dredging_site" xlink:title="Dredging Site" target="_top">
<polygon fill="none" stroke="#000000" points="817.5222,-513 653.5222,-513 653.5222,-463 817.5222,-463 817.5222,-513"/>
<text text-anchor="start" x="693.1087" y="-493.8" font-family="sans-serif" font-size="14.00" fill="#000000">Dredging Site</text>
<text text-anchor="start" x="665.4744" y="-473.8" font-family="sans-serif" font-size="14.00" fill="#000000">[Engineering Supplies]</text>
</a>
</g>
</g>
<!-- I_dredging_site&#45;&gt;C_sand -->
<g id="edge26" class="edge">
<title>I_dredging_site&#45;&gt;C_sand</title>
<g id="a_edge26"><a xlink:title="Dredging Site &#45;&gt; Sand">
<path fill="none" stroke="#000000" d="M817.606,-486.8143C846.6437,-486.3949 878.0581,-485.9411 902.2064,-485.5923"/>
<polygon fill="#000000" stroke="#000000" points="902.47,-489.0889 912.4184,-485.4448 902.3688,-482.0897 902.47,-489.0889"/>
</a>
</g>
</g>
<!-- I_fishing_grounds -->
<g id="fishing_grounds" class="node">
<title>I_fishing_grounds</title>
<g id="a_fishing_grounds"><a xlink:href="industries.html#fishing_grounds" xlink:title="Fishing Grounds" target="_top">
<polygon fill="none" stroke="#000000" points="139.5,-216 13.5,-216 13.5,-180 139.5,-180 139.5,-216"/>
<text text-anchor="start" x="25.1416" y="-193.8" font-family="sans-serif" font-size="14.00" fill="#000000">Fishing Grounds</text>
</a>
</g>
</g>
<!-- I_fishing_grounds&#45;&gt;C_fish -->
<g id="edge27" class="edge">
<title>I_fishing_grounds&#45;&gt;C_fish</title>
<g id="a_edge27"><a xlink:title="Fishing Grounds &#45;&gt; Fish">
<path fill="none" stroke="#000000" d="M139.7358,-198C158.3555,-198 178.126,-198 194.5672,-198"/>
<polygon fill="#000000" stroke="#000000" points="194.8451,-201.5001 204.8451,-198 194.8451,-194.5001 194.8451,-201.5001"/>
</a>
</g>
</g>
<!-- I_iron_ore_mine -->
<g id="iron_ore_mine" class="node">
<title>I_iron_ore_mine</title>
<g id="a_iron_ore_mine"><a xlink:href="industries.html#iron_ore_mine" xlink:title="Iron Ore Mine" target="_top">
<polygon fill="none" stroke="#000000" points="474.9409,-520 310.9409,-520 310.9409,-470 474.9409,-470 474.9409,-520"/>
<text text-anchor="start" x="350.1479" y="-500.8" font-family="sans-serif" font-size="14.00" fill="#000000">Iron Ore Mine</text>
<text text-anchor="start" x="322.893" y="-480.8" font-family="sans-serif" font-size="14.00" fill="#000000">[Engineering Supplies]</text>
</a>
</g>
</g>
<!-- I_iron_ore_mine&#45;&gt;C_iron_ore -->
<g id="edge30" class="edge">
<title>I_iron_ore_mine&#45;&gt;C_iron_ore</title>
<g id="a_edge30"><a xlink:title="Iron Ore Mine &#45;&gt; Iron Ore">
<path fill="none" stroke="#000000" d="M475.0743,-488.287C487.6918,-487.2558 500.4111,-486.2162 512.1344,-485.258"/>
<polygon fill="#000000" stroke="#000000" points="512.471,-488.7423 522.1526,-484.4392 511.9007,-481.7655 512.471,-488.7423"/>
</a>
</g>
</g>
<!-- I_orchard_piggery -->
<g id="orchard_piggery" class="node">
<title>I_orchard_piggery</title>
<g id="a_orchard_piggery"><a xlink:href="industries.html#orchard_piggery" xlink:title="Orchard and Piggery" target="_top">
<polygon fill="none" stroke="#000000" points="153,-53 0,-53 0,-3 153,-3 153,-53"/>
<text text-anchor="start" x="12.4106" y="-33.8" font-family="sans-serif" font-size="14.00" fill="#000000">Orchard and Piggery</text>
<text text-anchor="start" x="27.9829" y="-13.8" font-family="sans-serif" font-size="14.00" fill="#000000">[Farm Supplies]</text>
</a>
</g>
</g>
<!-- I_orchard_piggery&#45;&gt;C_fruits -->
<g id="edge32" class="edge">
<title>I_orchard_piggery&#45;&gt;C_fruits</title>
<g id="a_edge32"><a xlink:title="Orchard and Piggery &#45;&gt; Fruit">
<path fill="none" stroke="#000000" d="M153.3243,-23.0586C167.4066,-22.1528 181.5287,-21.2445 193.8418,-20.4525"/>
<polygon fill="#000000" stroke="#000000" points="194.3955,-23.9242 204.1502,-19.7894 193.9461,-16.9386 194.3955,-23.9242"/>
</a>
</g>
</g>
<!-- I_orchard_piggery&#45;&gt;C_livestock -->
<g id="edge33" class="edge">
<title>I_orchard_piggery&#45;&gt;C_livestock</title>
<g id="a_edge33"><a xlink:title="Orchard and Piggery &#45;&gt; Livestock">
<path fill="none" stroke="#000000" d="M153.3243,-52.707C164.5712,-56.3241 175.8436,-59.9494 186.1995,-63.2799"/>
<polygon fill="#000000" stroke="#000000" points="185.2254,-66.6431 195.8168,-66.3728 187.3686,-59.9792 185.2254,-66.6431"/>
</a>
</g>
</g>
<!-- I_junk_yard -->
<g id="junk_yard" class="node">
<title>I_junk_yard</title>
<g id="a_junk_yard"><a xlink:href="industries.html#junk_yard" xlink:title="Scrap Yard" target="_top">
<polygon fill="none" stroke="#000000" points="474.9409,-446 310.9409,-446 310.9409,-396 474.9409,-396 474.9409,-446"/>
<text text-anchor="start" x="358.5629" y="-426.8" font-family="sans-serif" font-size="14.00" fill="#000000">Scrap Yard</text>
<text text-anchor="start" x="322.893" y="-406.8" font-family="sans-serif" font-size="14.00" fill="#000000">[Engineering Supplies]</text>
</a>
</g>
</g>
<!-- I_junk_yard&#45;&gt;C_scrap_metal -->
<g id="edge37" class="edge">
<title>I_junk_yard&#45;&gt;C_scrap_metal</title>
<g id="a_edge37"><a xlink:title="Scrap Yard &#45;&gt; Scrap Metal">
<path fill="none" stroke="#000000" d="M475.0743,-421C482.2276,-421 489.4135,-421 496.4322,-421"/>
<polygon fill="#000000" stroke="#000000" points="496.5724,-424.5001 506.5724,-421 496.5723,-417.5001 496.5724,-424.5001"/>
</a>
</g>
</g>
</g>
</svg>
