<?xml version="1.0" encoding="UTF-8" standalone="no"?>
<?xml-stylesheet href="static/css/cargoflow_styles.css" type="text/css"?>
<!DOCTYPE svg PUBLIC "-//W3C//DTD SVG 1.1//EN"
 "http://www.w3.org/Graphics/SVG/1.1/DTD/svg11.dtd">
<!-- Generated by graphviz version 2.40.1 (20161225.0304)
 -->
<!-- Title: tropic_basic Pages: 1 -->
<svg width="1380pt" height="595pt"
 viewBox="0.00 0.00 1380.37 595.00" xmlns="http://www.w3.org/2000/svg" xmlns:xlink="http://www.w3.org/1999/xlink">
<g id="page0,1_graph0" class="graph" transform="scale(1 1) rotate(0) translate(4 591)">
<title>tropic_basic</title>
<g id="a_page0,1_graph0"><a xlink:title="Tropic Basic">
<polygon fill="#ffffff" stroke="transparent" points="-4,4 -4,-591 1376.3705,-591 1376.3705,4 -4,4"/>
</a>
</g>
<!-- C_alcohol -->
<g id="alcohol" class="node">
<title>C_alcohol</title>
<g id="a_alcohol"><a xlink:href="cargos.html#alcohol" xlink:title="Alcohol" target="_top">
<ellipse fill="none" stroke="#000000" cx="884.8831" cy="-294" rx="39.2233" ry="18"/>
<text text-anchor="middle" x="884.8831" y="-289.8" font-family="sans-serif" font-size="14.00" fill="#000000">Alcohol</text>
</a>
</g>
</g>
<!-- I_general_store -->
<g id="general_store" class="node">
<title>I_general_store</title>
<g id="a_general_store"><a xlink:href="industries.html#general_store" xlink:title="General Store" target="_top">
<polygon fill="none" stroke="#000000" points="1372.3705,-272 1261.3705,-272 1261.3705,-236 1372.3705,-236 1372.3705,-272"/>
<text text-anchor="start" x="1273.7914" y="-249.8" font-family="sans-serif" font-size="14.00" fill="#000000">General Store</text>
</a>
</g>
</g>
<!-- C_alcohol&#45;&gt;I_general_store -->
<g id="edge1" class="edge">
<title>C_alcohol&#45;&gt;I_general_store</title>
<g id="a_edge1"><a xlink:title="Alcohol &#45;&gt; General Store">
<path fill="none" stroke="#000000" d="M922.4936,-288.9533C933.299,-287.5812 945.1049,-286.1564 955.9946,-285 1058.8047,-274.0827 1178.4092,-264.4018 1250.8293,-258.8722"/>
<polygon fill="#000000" stroke="#000000" points="1251.4582,-262.3346 1261.1642,-258.0869 1250.9277,-255.3548 1251.4582,-262.3346"/>
</a>
</g>
</g>
<!-- I_hotel -->
<g id="hotel" class="node">
<title>I_hotel</title>
<g id="a_hotel"><a xlink:href="industries.html#hotel" xlink:title="Hotel" target="_top">
<polygon fill="none" stroke="#000000" points="1369.3705,-387 1264.3705,-387 1264.3705,-337 1369.3705,-337 1369.3705,-387"/>
<text text-anchor="start" x="1301.0291" y="-367.8" font-family="sans-serif" font-size="14.00" fill="#000000">Hotel</text>
<text text-anchor="start" x="1276.5155" y="-347.8" font-family="sans-serif" font-size="14.00" fill="#000000">[Passengers]</text>
</a>
</g>
</g>
<!-- C_alcohol&#45;&gt;I_hotel -->
<g id="edge2" class="edge">
<title>C_alcohol&#45;&gt;I_hotel</title>
<g id="a_edge2"><a xlink:title="Alcohol &#45;&gt; Hotel">
<path fill="none" stroke="#000000" d="M922.088,-299.8565C996.16,-311.5163 1162.7842,-337.745 1254.0964,-352.1186"/>
<polygon fill="#000000" stroke="#000000" points="1253.6166,-355.5861 1264.0392,-353.6837 1254.7051,-348.6712 1253.6166,-355.5861"/>
</a>
</g>
</g>
<!-- I_port -->
<g id="port" class="node">
<title>I_port</title>
<g id="a_port"><a xlink:href="industries.html#port" xlink:title="Port" target="_top">
<polygon fill="none" stroke="#000000" points="1009.9946,-192 955.9946,-192 955.9946,-156 1009.9946,-156 1009.9946,-192"/>
<text text-anchor="start" x="970.6567" y="-169.8" font-family="sans-serif" font-size="14.00" fill="#000000">Port</text>
</a>
</g>
</g>
<!-- C_alcohol&#45;&gt;I_port -->
<g id="edge3" class="edge">
<title>C_alcohol&#45;&gt;I_port</title>
<g id="a_edge3"><a xlink:title="Alcohol &#45;&gt; Port">
<path fill="none" stroke="#000000" d="M907.0935,-279.0168C912.9297,-274.5483 918.9868,-269.3931 923.9946,-264 941.7217,-244.9092 957.6419,-219.9135 968.4641,-201.1097"/>
<polygon fill="#000000" stroke="#000000" points="971.6422,-202.5988 973.4969,-192.1675 965.542,-199.1654 971.6422,-202.5988"/>
</a>
</g>
</g>
<!-- C_engineering_supplies -->
<g id="engineering_supplies" class="node">
<title>C_engineering_supplies</title>
<g id="a_engineering_supplies"><a xlink:href="cargos.html#engineering_supplies" xlink:title="Engineering Supplies" target="_top">
<ellipse fill="none" stroke="#000000" cx="1135.6825" cy="-139" rx="93.8763" ry="18"/>
<text text-anchor="middle" x="1135.6825" y="-134.8" font-family="sans-serif" font-size="14.00" fill="#000000">Engineering Supplies</text>
</a>
</g>
</g>
<!-- I_port&#45;&gt;C_engineering_supplies -->
<g id="edge35" class="edge">
<title>I_port&#45;&gt;C_engineering_supplies</title>
<g id="a_edge35"><a xlink:title="Port &#45;&gt; Engineering Supplies">
<path fill="none" stroke="#000000" d="M1010.2921,-167.7427C1025.7754,-164.1935 1045.9262,-159.5744 1065.5291,-155.081"/>
<polygon fill="#000000" stroke="#000000" points="1066.4276,-158.4659 1075.3927,-152.82 1064.8635,-151.6428 1066.4276,-158.4659"/>
</a>
</g>
</g>
<!-- C_farm_supplies -->
<g id="farm_supplies" class="node">
<title>C_farm_supplies</title>
<g id="a_farm_supplies"><a xlink:href="cargos.html#farm_supplies" xlink:title="Farm Supplies" target="_top">
<ellipse fill="none" stroke="#000000" cx="1135.6825" cy="-79" rx="67.2376" ry="18"/>
<text text-anchor="middle" x="1135.6825" y="-74.8" font-family="sans-serif" font-size="14.00" fill="#000000">Farm Supplies</text>
</a>
</g>
</g>
<!-- I_port&#45;&gt;C_farm_supplies -->
<g id="edge36" class="edge">
<title>I_port&#45;&gt;C_farm_supplies</title>
<g id="a_edge36"><a xlink:title="Port &#45;&gt; Farm Supplies">
<path fill="none" stroke="#000000" d="M995.2921,-155.8667C1006.0451,-141.292 1022.8991,-121.2887 1041.9946,-109 1051.6585,-102.7808 1062.715,-97.7584 1073.7643,-93.7332"/>
<polygon fill="#000000" stroke="#000000" points="1075.0942,-96.978 1083.4372,-90.4477 1072.8428,-90.3499 1075.0942,-96.978"/>
</a>
</g>
</g>
<!-- C_goods -->
<g id="goods" class="node">
<title>C_goods</title>
<g id="a_goods"><a xlink:href="cargos.html#goods" xlink:title="Goods" target="_top">
<ellipse fill="none" stroke="#000000" cx="1135.6825" cy="-199" rx="36.3252" ry="18"/>
<text text-anchor="middle" x="1135.6825" y="-194.8" font-family="sans-serif" font-size="14.00" fill="#000000">Goods</text>
</a>
</g>
</g>
<!-- I_port&#45;&gt;C_goods -->
<g id="edge37" class="edge">
<title>I_port&#45;&gt;C_goods</title>
<g id="a_edge37"><a xlink:title="Port &#45;&gt; Goods">
<path fill="none" stroke="#000000" d="M1010.2921,-178.4695C1032.707,-182.1396 1064.904,-187.4113 1091.0593,-191.6937"/>
<polygon fill="#000000" stroke="#000000" points="1090.6846,-195.1789 1101.1187,-193.3408 1091.8157,-188.2709 1090.6846,-195.1789"/>
</a>
</g>
</g>
<!-- C_beans -->
<g id="beans" class="node">
<title>C_beans</title>
<g id="a_beans"><a xlink:href="cargos.html#beans" xlink:title="Beans" target="_top">
<ellipse fill="none" stroke="#000000" cx="561.4611" cy="-449" rx="35.365" ry="18"/>
<text text-anchor="middle" x="561.4611" y="-444.8" font-family="sans-serif" font-size="14.00" fill="#000000">Beans</text>
</a>
</g>
</g>
<!-- I_food_processor -->
<g id="food_processor" class="node">
<title>I_food_processor</title>
<g id="a_food_processor"><a xlink:href="industries.html#food_processor" xlink:title="Food Processing Plant" target="_top">
<polygon fill="none" stroke="#000000" points="813.7716,-467 649.7716,-467 649.7716,-431 813.7716,-431 813.7716,-467"/>
<text text-anchor="start" x="661.3444" y="-444.8" font-family="sans-serif" font-size="14.00" fill="#000000">Food Processing Plant</text>
</a>
</g>
</g>
<!-- C_beans&#45;&gt;I_food_processor -->
<g id="edge4" class="edge">
<title>C_beans&#45;&gt;I_food_processor</title>
<g id="a_edge4"><a xlink:title="Beans &#45;&gt; Food Processing Plant">
<path fill="none" stroke="#000000" d="M596.7496,-449C609.3776,-449 624.2647,-449 639.4578,-449"/>
<polygon fill="#000000" stroke="#000000" points="639.4654,-452.5001 649.4654,-449 639.4654,-445.5001 639.4654,-452.5001"/>
</a>
</g>
</g>
<!-- C_food -->
<g id="food" class="node">
<title>C_food</title>
<g id="a_food"><a xlink:href="cargos.html#food" xlink:title="Food" target="_top">
<ellipse fill="none" stroke="#000000" cx="884.8831" cy="-354" rx="30.0292" ry="18"/>
<text text-anchor="middle" x="884.8831" y="-349.8" font-family="sans-serif" font-size="14.00" fill="#000000">Food</text>
</a>
</g>
</g>
<!-- I_food_processor&#45;&gt;C_food -->
<g id="edge31" class="edge">
<title>I_food_processor&#45;&gt;C_food</title>
<g id="a_edge31"><a xlink:title="Food Processing Plant &#45;&gt; Food">
<path fill="none" stroke="#000000" d="M778.8872,-430.9973C790.612,-425.7984 802.9236,-419.6978 813.7716,-413 830.727,-402.5313 847.9709,-388.3306 861.2312,-376.4845"/>
<polygon fill="#000000" stroke="#000000" points="863.8989,-378.789 868.9347,-369.4674 859.185,-373.614 863.8989,-378.789"/>
</a>
</g>
</g>
<!-- C_chemicals -->
<g id="chemicals" class="node">
<title>C_chemicals</title>
<g id="a_chemicals"><a xlink:href="cargos.html#chemicals" xlink:title="Chemicals" target="_top">
<ellipse fill="none" stroke="#000000" cx="561.4611" cy="-59" rx="51.2759" ry="18"/>
<text text-anchor="middle" x="561.4611" y="-54.8" font-family="sans-serif" font-size="14.00" fill="#000000">Chemicals</text>
</a>
</g>
</g>
<!-- C_chemicals&#45;&gt;I_port -->
<g id="edge6" class="edge">
<title>C_chemicals&#45;&gt;I_port</title>
<g id="a_edge6"><a xlink:title="Chemicals &#45;&gt; Port">
<path fill="none" stroke="#000000" d="M606.4086,-50.094C678.7992,-38.2332 823.2734,-25.028 923.9946,-84 947.6562,-97.8538 963.5786,-125.4014 972.8589,-146.3892"/>
<polygon fill="#000000" stroke="#000000" points="969.697,-147.901 976.7727,-155.7868 976.159,-145.2097 969.697,-147.901"/>
</a>
</g>
</g>
<!-- I_copper_refinery -->
<g id="copper_refinery" class="node">
<title>I_copper_refinery</title>
<g id="a_copper_refinery"><a xlink:href="industries.html#copper_refinery" xlink:title="Copper Refinery" target="_top">
<polygon fill="none" stroke="#000000" points="794.2716,-132 669.2716,-132 669.2716,-96 794.2716,-96 794.2716,-132"/>
<text text-anchor="start" x="681.3028" y="-109.8" font-family="sans-serif" font-size="14.00" fill="#000000">Copper Refinery</text>
</a>
</g>
</g>
<!-- C_chemicals&#45;&gt;I_copper_refinery -->
<g id="edge5" class="edge">
<title>C_chemicals&#45;&gt;I_copper_refinery</title>
<g id="a_edge5"><a xlink:title="Chemicals &#45;&gt; Copper Refinery">
<path fill="none" stroke="#000000" d="M599.2585,-71.2063C618.9806,-77.5753 643.6719,-85.5491 666.3789,-92.8821"/>
<polygon fill="#000000" stroke="#000000" points="665.377,-96.2365 675.9687,-95.979 667.5283,-89.5752 665.377,-96.2365"/>
</a>
</g>
</g>
<!-- C_copper -->
<g id="copper" class="node">
<title>C_copper</title>
<g id="a_copper"><a xlink:href="cargos.html#copper" xlink:title="Copper" target="_top">
<ellipse fill="none" stroke="#000000" cx="884.8831" cy="-114" rx="39.2233" ry="18"/>
<text text-anchor="middle" x="884.8831" y="-109.8" font-family="sans-serif" font-size="14.00" fill="#000000">Copper</text>
</a>
</g>
</g>
<!-- I_copper_refinery&#45;&gt;C_copper -->
<g id="edge27" class="edge">
<title>I_copper_refinery&#45;&gt;C_copper</title>
<g id="a_edge27"><a xlink:title="Copper Refinery &#45;&gt; Copper">
<path fill="none" stroke="#000000" d="M794.4897,-114C808.1744,-114 822.4693,-114 835.546,-114"/>
<polygon fill="#000000" stroke="#000000" points="835.7373,-117.5001 845.7372,-114 835.7372,-110.5001 835.7373,-117.5001"/>
</a>
</g>
</g>
<!-- C_coffee -->
<g id="coffee" class="node">
<title>C_coffee</title>
<g id="a_coffee"><a xlink:href="cargos.html#coffee" xlink:title="Coffee" target="_top">
<ellipse fill="none" stroke="#000000" cx="884.8831" cy="-234" rx="36.0136" ry="18"/>
<text text-anchor="middle" x="884.8831" y="-229.8" font-family="sans-serif" font-size="14.00" fill="#000000">Coffee</text>
</a>
</g>
</g>
<!-- C_coffee&#45;&gt;I_port -->
<g id="edge7" class="edge">
<title>C_coffee&#45;&gt;I_port</title>
<g id="a_edge7"><a xlink:title="Coffee &#45;&gt; Port">
<path fill="none" stroke="#000000" d="M908.1341,-219.7808C919.7365,-212.6854 934.031,-203.9436 947.0091,-196.0069"/>
<polygon fill="#000000" stroke="#000000" points="949.0292,-198.8742 955.7343,-190.671 945.3771,-192.9024 949.0292,-198.8742"/>
</a>
</g>
</g>
<!-- C_copper&#45;&gt;I_port -->
<g id="edge8" class="edge">
<title>C_copper&#45;&gt;I_port</title>
<g id="a_edge8"><a xlink:title="Copper &#45;&gt; Port">
<path fill="none" stroke="#000000" d="M908.6331,-128.5243C920.1527,-135.5691 934.236,-144.1817 947.0357,-152.0094"/>
<polygon fill="#000000" stroke="#000000" points="945.2875,-155.0428 955.6447,-157.2742 948.9396,-149.071 945.2875,-155.0428"/>
</a>
</g>
</g>
<!-- C_copper_ore -->
<g id="copper_ore" class="node">
<title>C_copper_ore</title>
<g id="a_copper_ore"><a xlink:href="cargos.html#copper_ore" xlink:title="Copper Ore" target="_top">
<ellipse fill="none" stroke="#000000" cx="561.4611" cy="-119" rx="56.1216" ry="18"/>
<text text-anchor="middle" x="561.4611" y="-114.8" font-family="sans-serif" font-size="14.00" fill="#000000">Copper Ore</text>
</a>
</g>
</g>
<!-- C_copper_ore&#45;&gt;I_copper_refinery -->
<g id="edge9" class="edge">
<title>C_copper_ore&#45;&gt;I_copper_refinery</title>
<g id="a_edge9"><a xlink:title="Copper Ore &#45;&gt; Copper Refinery">
<path fill="none" stroke="#000000" d="M617.6991,-117.349C630.8247,-116.9636 644.9904,-116.5477 658.7269,-116.1445"/>
<polygon fill="#000000" stroke="#000000" points="659.2303,-119.6313 669.1232,-115.8392 659.0248,-112.6343 659.2303,-119.6313"/>
</a>
</g>
</g>
<!-- C_fish -->
<g id="fish" class="node">
<title>C_fish</title>
<g id="a_fish"><a xlink:href="cargos.html#fish" xlink:title="Fish" target="_top">
<ellipse fill="none" stroke="#000000" cx="561.4611" cy="-569" rx="27" ry="18"/>
<text text-anchor="middle" x="561.4611" y="-564.8" font-family="sans-serif" font-size="14.00" fill="#000000">Fish</text>
</a>
</g>
</g>
<!-- I_fishing_harbour -->
<g id="fishing_harbour" class="node">
<title>I_fishing_harbour</title>
<g id="a_fishing_harbour"><a xlink:href="industries.html#fishing_harbour" xlink:title="Fishing Harbour" target="_top">
<polygon fill="none" stroke="#000000" points="793.2716,-587 670.2716,-587 670.2716,-551 793.2716,-551 793.2716,-587"/>
<text text-anchor="start" x="682.4718" y="-564.8" font-family="sans-serif" font-size="14.00" fill="#000000">Fishing Harbour</text>
</a>
</g>
</g>
<!-- C_fish&#45;&gt;I_fishing_harbour -->
<g id="edge10" class="edge">
<title>C_fish&#45;&gt;I_fishing_harbour</title>
<g id="a_edge10"><a xlink:title="Fish &#45;&gt; Fishing Harbour">
<path fill="none" stroke="#000000" d="M588.8244,-569C608.0802,-569 634.8007,-569 659.9341,-569"/>
<polygon fill="#000000" stroke="#000000" points="660.2085,-572.5001 670.2085,-569 660.2085,-565.5001 660.2085,-572.5001"/>
</a>
</g>
</g>
<!-- I_fishing_harbour&#45;&gt;C_food -->
<g id="edge29" class="edge">
<title>I_fishing_harbour&#45;&gt;C_food</title>
<g id="a_edge29"><a xlink:title="Fishing Harbour &#45;&gt; Food">
<path fill="none" stroke="#000000" d="M793.466,-553.1648C800.9145,-549.3949 807.9365,-544.741 813.7716,-539 857.7898,-495.6912 875.0391,-422.1875 881.4186,-382.1074"/>
<polygon fill="#000000" stroke="#000000" points="884.8819,-382.6126 882.8798,-372.2086 877.9569,-381.5903 884.8819,-382.6126"/>
</a>
</g>
</g>
<!-- C_food&#45;&gt;I_general_store -->
<g id="edge11" class="edge">
<title>C_food&#45;&gt;I_general_store</title>
<g id="a_edge11"><a xlink:title="Food &#45;&gt; General Store">
<path fill="none" stroke="#000000" d="M914.7706,-349.9226C975.0224,-341.324 1115.0704,-319.4188 1229.3705,-287 1240.6054,-283.8134 1252.4347,-279.8123 1263.6374,-275.7059"/>
<polygon fill="#000000" stroke="#000000" points="1265.1548,-278.8751 1273.2903,-272.088 1262.698,-272.3203 1265.1548,-278.8751"/>
</a>
</g>
</g>
<!-- C_food&#45;&gt;I_hotel -->
<g id="edge12" class="edge">
<title>C_food&#45;&gt;I_hotel</title>
<g id="a_edge12"><a xlink:title="Food &#45;&gt; Hotel">
<path fill="none" stroke="#000000" d="M911.5635,-362.8998C924.7673,-366.847 941.0439,-371.0371 955.9946,-373 1076.4612,-388.8161 1108.1075,-380.5924 1229.3705,-373 1237.4095,-372.4967 1245.8397,-371.7357 1254.1609,-370.8441"/>
<polygon fill="#000000" stroke="#000000" points="1254.6824,-374.3075 1264.2231,-369.7005 1253.8918,-367.3523 1254.6824,-374.3075"/>
</a>
</g>
</g>
<!-- C_food&#45;&gt;I_port -->
<g id="edge13" class="edge">
<title>C_food&#45;&gt;I_port</title>
<g id="a_edge13"><a xlink:title="Food &#45;&gt; Port">
<path fill="none" stroke="#000000" d="M906.2326,-340.8829C912.5956,-336.1766 919.1545,-330.4251 923.9946,-324 952.1316,-286.6486 968.675,-234.1445 976.7713,-202.186"/>
<polygon fill="#000000" stroke="#000000" points="980.2407,-202.7305 979.1978,-192.1871 973.4382,-201.0797 980.2407,-202.7305"/>
</a>
</g>
</g>
<!-- C_fruits -->
<g id="fruits" class="node">
<title>C_fruits</title>
<g id="a_fruits"><a xlink:href="cargos.html#fruits" xlink:title="Fruit" target="_top">
<ellipse fill="none" stroke="#000000" cx="561.4611" cy="-339" rx="27.589" ry="18"/>
<text text-anchor="middle" x="561.4611" y="-334.8" font-family="sans-serif" font-size="14.00" fill="#000000">Fruit</text>
</a>
</g>
</g>
<!-- C_fruits&#45;&gt;I_food_processor -->
<g id="edge14" class="edge">
<title>C_fruits&#45;&gt;I_food_processor</title>
<g id="a_edge14"><a xlink:title="Fruit &#45;&gt; Food Processing Plant">
<path fill="none" stroke="#000000" d="M581.3312,-351.8337C609.2386,-369.8585 660.5253,-402.9835 695.3769,-425.4934"/>
<polygon fill="#000000" stroke="#000000" points="693.5599,-428.4864 703.8591,-430.9719 697.3578,-422.6062 693.5599,-428.4864"/>
</a>
</g>
</g>
<!-- C_goods&#45;&gt;I_general_store -->
<g id="edge15" class="edge">
<title>C_goods&#45;&gt;I_general_store</title>
<g id="a_edge15"><a xlink:title="Goods &#45;&gt; General Store">
<path fill="none" stroke="#000000" d="M1166.8298,-208.4548C1190.1013,-215.5189 1222.7426,-225.4273 1251.6395,-234.199"/>
<polygon fill="#000000" stroke="#000000" points="1250.6912,-237.5688 1261.2768,-237.1244 1252.7245,-230.8706 1250.6912,-237.5688"/>
</a>
</g>
</g>
<!-- C_grain -->
<g id="grain" class="node">
<title>C_grain</title>
<g id="a_grain"><a xlink:href="cargos.html#grain" xlink:title="Grain" target="_top">
<ellipse fill="none" stroke="#000000" cx="561.4611" cy="-509" rx="31.9654" ry="18"/>
<text text-anchor="middle" x="561.4611" y="-504.8" font-family="sans-serif" font-size="14.00" fill="#000000">Grain</text>
</a>
</g>
</g>
<!-- I_flour_mill -->
<g id="flour_mill" class="node">
<title>I_flour_mill</title>
<g id="a_flour_mill"><a xlink:href="industries.html#flour_mill" xlink:title="Flour Mill" target="_top">
<polygon fill="none" stroke="#000000" points="771.7716,-527 691.7716,-527 691.7716,-491 771.7716,-491 771.7716,-527"/>
<text text-anchor="start" x="703.382" y="-504.8" font-family="sans-serif" font-size="14.00" fill="#000000">Flour Mill</text>
</a>
</g>
</g>
<!-- C_grain&#45;&gt;I_flour_mill -->
<g id="edge16" class="edge">
<title>C_grain&#45;&gt;I_flour_mill</title>
<g id="a_edge16"><a xlink:title="Grain &#45;&gt; Flour Mill">
<path fill="none" stroke="#000000" d="M593.4952,-509C618.2108,-509 652.8668,-509 681.3003,-509"/>
<polygon fill="#000000" stroke="#000000" points="681.4644,-512.5001 691.4643,-509 681.4643,-505.5001 681.4644,-512.5001"/>
</a>
</g>
</g>
<!-- I_flour_mill&#45;&gt;C_food -->
<g id="edge30" class="edge">
<title>I_flour_mill&#45;&gt;C_food</title>
<g id="a_edge30"><a xlink:title="Flour Mill &#45;&gt; Food">
<path fill="none" stroke="#000000" d="M771.8569,-500.4674C786.2488,-495.9102 801.8512,-489.0842 813.7716,-479 844.6691,-452.8618 864.949,-409.7095 875.6697,-381.5682"/>
<polygon fill="#000000" stroke="#000000" points="879.0436,-382.5327 879.1889,-371.9389 872.4689,-380.1299 879.0436,-382.5327"/>
</a>
</g>
</g>
<!-- C_livestock -->
<g id="livestock" class="node">
<title>C_livestock</title>
<g id="a_livestock"><a xlink:href="cargos.html#livestock" xlink:title="Livestock" target="_top">
<ellipse fill="none" stroke="#000000" cx="561.4611" cy="-279" rx="46.9409" ry="18"/>
<text text-anchor="middle" x="561.4611" y="-274.8" font-family="sans-serif" font-size="14.00" fill="#000000">Livestock</text>
</a>
</g>
</g>
<!-- I_stockyard -->
<g id="stockyard" class="node">
<title>I_stockyard</title>
<g id="a_stockyard"><a xlink:href="industries.html#stockyard" xlink:title="Stockyard" target="_top">
<polygon fill="none" stroke="#000000" points="774.7716,-327 688.7716,-327 688.7716,-291 774.7716,-291 774.7716,-327"/>
<text text-anchor="start" x="700.6476" y="-304.8" font-family="sans-serif" font-size="14.00" fill="#000000">Stockyard</text>
</a>
</g>
</g>
<!-- C_livestock&#45;&gt;I_stockyard -->
<g id="edge17" class="edge">
<title>C_livestock&#45;&gt;I_stockyard</title>
<g id="a_edge17"><a xlink:title="Livestock &#45;&gt; Stockyard">
<path fill="none" stroke="#000000" d="M604.4376,-286.5703C626.942,-290.5344 654.7043,-295.4247 678.5566,-299.6262"/>
<polygon fill="#000000" stroke="#000000" points="678.0573,-303.0921 688.5129,-301.38 679.2717,-296.1982 678.0573,-303.0921"/>
</a>
</g>
</g>
<!-- I_stockyard&#45;&gt;C_food -->
<g id="edge40" class="edge">
<title>I_stockyard&#45;&gt;C_food</title>
<g id="a_edge40"><a xlink:title="Stockyard &#45;&gt; Food">
<path fill="none" stroke="#000000" d="M774.8291,-321.6548C797.84,-328.4177 825.8806,-336.659 847.8984,-343.1301"/>
<polygon fill="#000000" stroke="#000000" points="846.97,-346.5052 857.5512,-345.9671 848.9439,-339.7892 846.97,-346.5052"/>
</a>
</g>
</g>
<!-- C_nitrates -->
<g id="nitrates" class="node">
<title>C_nitrates</title>
<g id="a_nitrates"><a xlink:href="cargos.html#nitrates" xlink:title="Nitrates" target="_top">
<ellipse fill="none" stroke="#000000" cx="236.5753" cy="-59" rx="40.6508" ry="18"/>
<text text-anchor="middle" x="236.5753" y="-54.8" font-family="sans-serif" font-size="14.00" fill="#000000">Nitrates</text>
</a>
</g>
</g>
<!-- I_chemical_plant -->
<g id="chemical_plant" class="node">
<title>I_chemical_plant</title>
<g id="a_chemical_plant"><a xlink:href="industries.html#chemical_plant" xlink:title="Chemical Plant" target="_top">
<polygon fill="none" stroke="#000000" points="450.1506,-77 332.1506,-77 332.1506,-41 450.1506,-41 450.1506,-77"/>
<text text-anchor="start" x="344.075" y="-54.8" font-family="sans-serif" font-size="14.00" fill="#000000">Chemical Plant</text>
</a>
</g>
</g>
<!-- C_nitrates&#45;&gt;I_chemical_plant -->
<g id="edge18" class="edge">
<title>C_nitrates&#45;&gt;I_chemical_plant</title>
<g id="a_edge18"><a xlink:title="Nitrates &#45;&gt; Chemical Plant">
<path fill="none" stroke="#000000" d="M277.1882,-59C290.7789,-59 306.3392,-59 321.5034,-59"/>
<polygon fill="#000000" stroke="#000000" points="321.9093,-62.5001 331.9092,-59 321.9092,-55.5001 321.9093,-62.5001"/>
</a>
</g>
</g>
<!-- I_chemical_plant&#45;&gt;C_chemicals -->
<g id="edge23" class="edge">
<title>I_chemical_plant&#45;&gt;C_chemicals</title>
<g id="a_edge23"><a xlink:title="Chemical Plant &#45;&gt; Chemicals">
<path fill="none" stroke="#000000" d="M450.239,-59C466.1587,-59 483.4236,-59 499.4955,-59"/>
<polygon fill="#000000" stroke="#000000" points="499.8586,-62.5001 509.8586,-59 499.8586,-55.5001 499.8586,-62.5001"/>
</a>
</g>
</g>
<!-- C_oil -->
<g id="oil" class="node">
<title>C_oil</title>
<g id="a_oil"><a xlink:href="cargos.html#oil" xlink:title="Oil" target="_top">
<ellipse fill="none" stroke="#000000" cx="236.5753" cy="-119" rx="27" ry="18"/>
<text text-anchor="middle" x="236.5753" y="-114.8" font-family="sans-serif" font-size="14.00" fill="#000000">Oil</text>
</a>
</g>
</g>
<!-- C_oil&#45;&gt;I_chemical_plant -->
<g id="edge19" class="edge">
<title>C_oil&#45;&gt;I_chemical_plant</title>
<g id="a_edge19"><a xlink:title="Oil &#45;&gt; Chemical Plant">
<path fill="none" stroke="#000000" d="M259.3588,-109.2995C273.6091,-103.3026 292.3806,-95.5306 309.1506,-89 316.3018,-86.2152 323.8313,-83.3587 331.31,-80.5676"/>
<polygon fill="#000000" stroke="#000000" points="332.5637,-83.8356 340.7233,-77.0776 330.1303,-77.2722 332.5637,-83.8356"/>
</a>
</g>
</g>
<!-- C_wool -->
<g id="wool" class="node">
<title>C_wool</title>
<g id="a_wool"><a xlink:href="cargos.html#wool" xlink:title="Wool" target="_top">
<ellipse fill="none" stroke="#000000" cx="884.8831" cy="-174" rx="30.1996" ry="18"/>
<text text-anchor="middle" x="884.8831" y="-169.8" font-family="sans-serif" font-size="14.00" fill="#000000">Wool</text>
</a>
</g>
</g>
<!-- C_wool&#45;&gt;I_port -->
<g id="edge20" class="edge">
<title>C_wool&#45;&gt;I_port</title>
<g id="a_edge20"><a xlink:title="Wool &#45;&gt; Port">
<path fill="none" stroke="#000000" d="M915.1203,-174C924.7315,-174 935.4787,-174 945.536,-174"/>
<polygon fill="#000000" stroke="#000000" points="945.6906,-177.5001 955.6905,-174 945.6905,-170.5001 945.6906,-177.5001"/>
</a>
</g>
</g>
<!-- I_arable_farm -->
<g id="arable_farm" class="node">
<title>I_arable_farm</title>
<g id="a_arable_farm"><a xlink:href="industries.html#arable_farm" xlink:title="Arable Farm" target="_top">
<polygon fill="none" stroke="#000000" points="452.1506,-500 330.1506,-500 330.1506,-450 452.1506,-450 452.1506,-500"/>
<text text-anchor="start" x="352.6404" y="-480.8" font-family="sans-serif" font-size="14.00" fill="#000000">Arable Farm</text>
<text text-anchor="start" x="342.1336" y="-460.8" font-family="sans-serif" font-size="14.00" fill="#000000">[Farm Supplies]</text>
</a>
</g>
</g>
<!-- I_arable_farm&#45;&gt;C_beans -->
<g id="edge21" class="edge">
<title>I_arable_farm&#45;&gt;C_beans</title>
<g id="a_edge21"><a xlink:title="Arable Farm &#45;&gt; Beans">
<path fill="none" stroke="#000000" d="M452.1556,-465.6868C473.7758,-462.3863 497.6602,-458.74 517.5736,-455.7"/>
<polygon fill="#000000" stroke="#000000" points="518.2349,-459.1397 527.5921,-454.1705 517.1784,-452.2198 518.2349,-459.1397"/>
</a>
</g>
</g>
<!-- I_arable_farm&#45;&gt;C_grain -->
<g id="edge22" class="edge">
<title>I_arable_farm&#45;&gt;C_grain</title>
<g id="a_edge22"><a xlink:title="Arable Farm &#45;&gt; Grain">
<path fill="none" stroke="#000000" d="M452.1556,-487.1787C475.1814,-491.7755 500.7754,-496.885 521.4055,-501.0035"/>
<polygon fill="#000000" stroke="#000000" points="520.9088,-504.4733 531.4005,-502.9988 522.2792,-497.6088 520.9088,-504.4733"/>
</a>
</g>
</g>
<!-- I_coffee_estate -->
<g id="coffee_estate" class="node">
<title>I_coffee_estate</title>
<g id="a_coffee_estate"><a xlink:href="industries.html#coffee_estate" xlink:title="Coffee Estate" target="_top">
<polygon fill="none" stroke="#000000" points="452.1506,-309 330.1506,-309 330.1506,-259 452.1506,-259 452.1506,-309"/>
<text text-anchor="start" x="348.8601" y="-289.8" font-family="sans-serif" font-size="14.00" fill="#000000">Coffee Estate</text>
<text text-anchor="start" x="342.1336" y="-269.8" font-family="sans-serif" font-size="14.00" fill="#000000">[Farm Supplies]</text>
</a>
</g>
</g>
<!-- I_coffee_estate&#45;&gt;C_coffee -->
<g id="edge24" class="edge">
<title>I_coffee_estate&#45;&gt;C_coffee</title>
<g id="a_edge24"><a xlink:title="Coffee Estate &#45;&gt; Coffee">
<path fill="none" stroke="#000000" d="M452.2746,-262.0591C469.1902,-256.8626 487.7004,-251.9718 505.1506,-249 624.1753,-228.7301 767.0757,-229.7748 838.8953,-232.0188"/>
<polygon fill="#000000" stroke="#000000" points="838.8529,-235.5193 848.9646,-232.3562 839.0874,-228.5232 838.8529,-235.5193"/>
</a>
</g>
</g>
<!-- I_coffee_estate&#45;&gt;C_fruits -->
<g id="edge25" class="edge">
<title>I_coffee_estate&#45;&gt;C_fruits</title>
<g id="a_edge25"><a xlink:title="Coffee Estate &#45;&gt; Fruit">
<path fill="none" stroke="#000000" d="M452.1556,-303.7009C477.2044,-311.7902 505.2925,-320.8609 526.7231,-327.7817"/>
<polygon fill="#000000" stroke="#000000" points="525.7738,-331.1531 536.3656,-330.8956 527.9251,-324.4918 525.7738,-331.1531"/>
</a>
</g>
</g>
<!-- I_copper_mine -->
<g id="copper_mine" class="node">
<title>I_copper_mine</title>
<g id="a_copper_mine"><a xlink:href="industries.html#copper_mine" xlink:title="Copper Mine" target="_top">
<polygon fill="none" stroke="#000000" points="473.1506,-151 309.1506,-151 309.1506,-101 473.1506,-101 473.1506,-151"/>
<text text-anchor="start" x="351.075" y="-131.8" font-family="sans-serif" font-size="14.00" fill="#000000">Copper Mine</text>
<text text-anchor="start" x="321.1028" y="-111.8" font-family="sans-serif" font-size="14.00" fill="#000000">[Engineering Supplies]</text>
</a>
</g>
</g>
<!-- I_copper_mine&#45;&gt;C_copper_ore -->
<g id="edge26" class="edge">
<title>I_copper_mine&#45;&gt;C_copper_ore</title>
<g id="a_edge26"><a xlink:title="Copper Mine &#45;&gt; Copper Ore">
<path fill="none" stroke="#000000" d="M473.3127,-122.623C480.628,-122.3224 487.9728,-122.0205 495.1308,-121.7263"/>
<polygon fill="#000000" stroke="#000000" points="495.6114,-125.2096 505.4592,-121.3018 495.3239,-118.2155 495.6114,-125.2096"/>
</a>
</g>
</g>
<!-- I_fishing_grounds -->
<g id="fishing_grounds" class="node">
<title>I_fishing_grounds</title>
<g id="a_fishing_grounds"><a xlink:href="industries.html#fishing_grounds" xlink:title="Fishing Grounds" target="_top">
<polygon fill="none" stroke="#000000" points="454.1506,-587 328.1506,-587 328.1506,-551 454.1506,-551 454.1506,-587"/>
<text text-anchor="start" x="339.7922" y="-564.8" font-family="sans-serif" font-size="14.00" fill="#000000">Fishing Grounds</text>
</a>
</g>
</g>
<!-- I_fishing_grounds&#45;&gt;C_fish -->
<g id="edge28" class="edge">
<title>I_fishing_grounds&#45;&gt;C_fish</title>
<g id="a_edge28"><a xlink:title="Fishing Grounds &#45;&gt; Fish">
<path fill="none" stroke="#000000" d="M454.568,-569C477.9232,-569 503.6165,-569 523.9589,-569"/>
<polygon fill="#000000" stroke="#000000" points="524.0683,-572.5001 534.0683,-569 524.0682,-565.5001 524.0683,-572.5001"/>
</a>
</g>
</g>
<!-- I_nitrate_mine -->
<g id="nitrate_mine" class="node">
<title>I_nitrate_mine</title>
<g id="a_nitrate_mine"><a xlink:href="industries.html#nitrate_mine" xlink:title="Nitrate Mine" target="_top">
<polygon fill="none" stroke="#000000" points="164,-50 0,-50 0,0 164,0 164,-50"/>
<text text-anchor="start" x="44.2656" y="-30.8" font-family="sans-serif" font-size="14.00" fill="#000000">Nitrate Mine</text>
<text text-anchor="start" x="11.9521" y="-10.8" font-family="sans-serif" font-size="14.00" fill="#000000">[Engineering Supplies]</text>
</a>
</g>
</g>
<!-- I_nitrate_mine&#45;&gt;C_farm_supplies -->
<g id="edge32" class="edge">
<title>I_nitrate_mine&#45;&gt;C_farm_supplies</title>
<g id="a_edge32"><a xlink:title="Nitrate Mine &#45;&gt; Farm Supplies">
<path fill="none" stroke="#000000" d="M164.2365,-16.3676C226.4687,-10.5755 314.0883,-4 391.1506,-4 391.1506,-4 391.1506,-4 884.8831,-4 961.5745,-4 1046.1359,-36.5888 1094.868,-58.8027"/>
<polygon fill="#000000" stroke="#000000" points="1093.5793,-62.063 1104.1238,-63.0944 1096.5239,-55.7125 1093.5793,-62.063"/>
</a>
</g>
</g>
<!-- I_nitrate_mine&#45;&gt;C_nitrates -->
<g id="edge33" class="edge">
<title>I_nitrate_mine&#45;&gt;C_nitrates</title>
<g id="a_edge33"><a xlink:title="Nitrate Mine &#45;&gt; Nitrates">
<path fill="none" stroke="#000000" d="M164.266,-43.095C173.185,-45.0568 182.0152,-46.9991 190.2788,-48.8167"/>
<polygon fill="#000000" stroke="#000000" points="189.5272,-52.235 200.0456,-50.965 191.031,-45.3984 189.5272,-52.235"/>
</a>
</g>
</g>
<!-- I_oil_wells -->
<g id="oil_wells" class="node">
<title>I_oil_wells</title>
<g id="a_oil_wells"><a xlink:href="industries.html#oil_wells" xlink:title="Oil Wells" target="_top">
<polygon fill="none" stroke="#000000" points="164,-144 0,-144 0,-94 164,-94 164,-144"/>
<text text-anchor="start" x="54.5127" y="-124.8" font-family="sans-serif" font-size="14.00" fill="#000000">Oil Wells</text>
<text text-anchor="start" x="11.9521" y="-104.8" font-family="sans-serif" font-size="14.00" fill="#000000">[Engineering Supplies]</text>
</a>
</g>
</g>
<!-- I_oil_wells&#45;&gt;C_oil -->
<g id="edge34" class="edge">
<title>I_oil_wells&#45;&gt;C_oil</title>
<g id="a_edge34"><a xlink:title="Oil Wells &#45;&gt; Oil">
<path fill="none" stroke="#000000" d="M164.266,-119C176.4869,-119 188.5412,-119 199.1997,-119"/>
<polygon fill="#000000" stroke="#000000" points="199.3475,-122.5001 209.3475,-119 199.3474,-115.5001 199.3475,-122.5001"/>
</a>
</g>
</g>
<!-- I_ranch -->
<g id="ranch" class="node">
<title>I_ranch</title>
<g id="a_ranch"><a xlink:href="industries.html#ranch" xlink:title="Ranch" target="_top">
<polygon fill="none" stroke="#000000" points="452.1506,-228 330.1506,-228 330.1506,-178 452.1506,-178 452.1506,-228"/>
<text text-anchor="start" x="370.9163" y="-208.8" font-family="sans-serif" font-size="14.00" fill="#000000">Ranch</text>
<text text-anchor="start" x="342.1336" y="-188.8" font-family="sans-serif" font-size="14.00" fill="#000000">[Farm Supplies]</text>
</a>
</g>
</g>
<!-- I_ranch&#45;&gt;C_livestock -->
<g id="edge38" class="edge">
<title>I_ranch&#45;&gt;C_livestock</title>
<g id="a_edge38"><a xlink:title="Ranch &#45;&gt; Livestock">
<path fill="none" stroke="#000000" d="M447.3887,-228.0959C471.5271,-238.8675 499.1833,-251.2089 521.2186,-261.042"/>
<polygon fill="#000000" stroke="#000000" points="520.0439,-264.3504 530.6022,-265.2294 522.8965,-257.958 520.0439,-264.3504"/>
</a>
</g>
</g>
<!-- I_ranch&#45;&gt;C_wool -->
<g id="edge39" class="edge">
<title>I_ranch&#45;&gt;C_wool</title>
<g id="a_edge39"><a xlink:title="Ranch &#45;&gt; Wool">
<path fill="none" stroke="#000000" d="M452.1871,-199.4149C554.6006,-193.3996 758.2921,-181.4355 844.6671,-176.3621"/>
<polygon fill="#000000" stroke="#000000" points="845.0693,-179.8446 854.8468,-175.7642 844.6588,-172.8567 845.0693,-179.8446"/>
</a>
</g>
</g>
<!-- I_vineyard -->
<g id="vineyard" class="node">
<title>I_vineyard</title>
<g id="a_vineyard"><a xlink:href="industries.html#vineyard" xlink:title="Vineyard" target="_top">
<polygon fill="none" stroke="#000000" points="452.1506,-396 330.1506,-396 330.1506,-346 452.1506,-346 452.1506,-396"/>
<text text-anchor="start" x="363.6463" y="-376.8" font-family="sans-serif" font-size="14.00" fill="#000000">Vineyard</text>
<text text-anchor="start" x="342.1336" y="-356.8" font-family="sans-serif" font-size="14.00" fill="#000000">[Farm Supplies]</text>
</a>
</g>
</g>
<!-- I_vineyard&#45;&gt;C_alcohol -->
<g id="edge41" class="edge">
<title>I_vineyard&#45;&gt;C_alcohol</title>
<g id="a_edge41"><a xlink:title="Vineyard &#45;&gt; Alcohol">
<path fill="none" stroke="#000000" d="M452.2012,-376.7779C536.4559,-382.4664 691.791,-384.6409 813.7716,-339 829.0031,-333.3009 844.4334,-324.05 857.01,-315.4136"/>
<polygon fill="#000000" stroke="#000000" points="859.0945,-318.2261 865.2234,-309.5839 855.0428,-312.5179 859.0945,-318.2261"/>
</a>
</g>
</g>
<!-- I_vineyard&#45;&gt;C_fruits -->
<g id="edge42" class="edge">
<title>I_vineyard&#45;&gt;C_fruits</title>
<g id="a_edge42"><a xlink:title="Vineyard &#45;&gt; Fruit">
<path fill="none" stroke="#000000" d="M452.1556,-359.5377C476.4349,-354.9758 503.5696,-349.8774 524.7294,-345.9016"/>
<polygon fill="#000000" stroke="#000000" points="525.4166,-349.3338 534.5982,-344.0473 524.1239,-342.4542 525.4166,-349.3338"/>
</a>
</g>
</g>
</g>
</svg>
